<svg width="1440" height="900" viewBox="0 0 1440 900" fill="none" xmlns="http://www.w3.org/2000/svg">
<rect width="1440" height="900" fill="#0D2434"/>
<mask id="mask0" mask-type="alpha" maskUnits="userSpaceOnUse" x="0" y="0" width="1440" height="900">
<rect width="1440" height="900" fill="#C4C4C4"/>
</mask>
<g mask="url(#mask0)">
<path d="M1280 -324L2028.25 972H531.754L1280 -324Z" fill="#EAA942"/>
<mask id="mask1" mask-type="alpha" maskUnits="userSpaceOnUse" x="530" y="-648" width="1874" height="1622">
<path d="M1467 -648L2403.17 973.5H530.827L1467 -648Z" fill="#C4C4C4"/>
</mask>
<g mask="url(#mask1)">
<path fill-rule="evenodd" clip-rule="evenodd" d="M1437.36 437.76L1405.19 493.472H1469.52L1437.36 437.76ZM1437.36 448.684L1414.65 488.01H1460.06L1437.36 448.684Z" fill="#FBFF2E" fill-opacity="0.1"/>
<path fill-rule="evenodd" clip-rule="evenodd" d="M1087.11 824.88L1054.94 880.592H1119.27L1087.11 824.88ZM1087.11 835.804L1064.4 875.13H1109.81L1087.11 835.804Z" fill="#FBFF2E" fill-opacity="0.1"/>
<path fill-rule="evenodd" clip-rule="evenodd" d="M1300.42 566.8L1268.25 622.512H1332.58L1300.42 566.8ZM1300.42 577.724L1277.71 617.05H1323.12L1300.42 577.724Z" fill="#FBFF2E" fill-opacity="0.1"/>
<path fill-rule="evenodd" clip-rule="evenodd" d="M1225.36 695.84L1193.2 751.552H1257.53L1225.36 695.84ZM1225.36 706.764L1202.66 746.09H1248.07L1225.36 706.764Z" fill="#FBFF2E" fill-opacity="0.1"/>
<path fill-rule="evenodd" clip-rule="evenodd" d="M1129.24 831.873L1097.08 776.16H1161.41L1129.24 831.873ZM1129.24 820.949L1106.54 781.622H1151.95L1129.24 820.949Z" fill="#FBFF2E" fill-opacity="0.1"/>
<path fill-rule="evenodd" clip-rule="evenodd" d="M1342.55 573.792L1310.39 518.08H1374.72L1342.55 573.792ZM1342.55 562.868L1319.85 523.542H1365.26L1342.55 562.868Z" fill="#FBFF2E" fill-opacity="0.1"/>
<path fill-rule="evenodd" clip-rule="evenodd" d="M1267.5 702.832L1235.33 647.12H1299.66L1267.5 702.832ZM1267.5 691.908L1244.79 652.582H1290.2L1267.5 691.908Z" fill="#FBFF2E" fill-opacity="0.1"/>
<path fill-rule="evenodd" clip-rule="evenodd" d="M1424.19 824.88L1392.02 880.592H1456.36L1424.19 824.88ZM1424.19 835.804L1401.49 875.13H1446.9L1424.19 835.804Z" fill="#FBFF2E" fill-opacity="0.1"/>
<path fill-rule="evenodd" clip-rule="evenodd" d="M1466.33 831.873L1434.16 776.16H1498.49L1466.33 831.873ZM1466.33 820.949L1443.62 781.622H1489.03L1466.33 820.949Z" fill="#FBFF2E" fill-opacity="0.1"/>
<path fill-rule="evenodd" clip-rule="evenodd" d="M1255.65 824.88L1223.48 880.592H1287.81L1255.65 824.88ZM1255.65 835.804L1232.94 875.13H1278.35L1255.65 835.804Z" fill="#FBFF2E" fill-opacity="0.1"/>
<path fill-rule="evenodd" clip-rule="evenodd" d="M1468.96 566.8L1436.79 622.512H1501.12L1468.96 566.8ZM1468.96 577.724L1446.25 617.05H1491.66L1468.96 577.724Z" fill="#FBFF2E" fill-opacity="0.1"/>
<path fill-rule="evenodd" clip-rule="evenodd" d="M1393.91 695.84L1361.74 751.552H1426.07L1393.91 695.84ZM1393.91 706.764L1371.2 746.09H1416.61L1393.91 706.764Z" fill="#FBFF2E" fill-opacity="0.1"/>
<path fill-rule="evenodd" clip-rule="evenodd" d="M1297.78 831.873L1265.62 776.16H1329.95L1297.78 831.873ZM1297.78 820.949L1275.08 781.622H1320.49L1297.78 820.949Z" fill="#FBFF2E" fill-opacity="0.1"/>
<path fill-rule="evenodd" clip-rule="evenodd" d="M1436.04 702.832L1403.88 647.12H1468.21L1436.04 702.832ZM1436.04 691.908L1413.34 652.582H1458.75L1436.04 691.908Z" fill="#FBFF2E" fill-opacity="0.1"/>
<path fill-rule="evenodd" clip-rule="evenodd" d="M1171.38 824.88L1139.21 880.592H1203.54L1171.38 824.88ZM1171.38 835.804L1148.67 875.13H1194.08L1171.38 835.804Z" fill="#FBFF2E" fill-opacity="0.1"/>
<path fill-rule="evenodd" clip-rule="evenodd" d="M1384.69 566.8L1352.52 622.512H1416.85L1384.69 566.8ZM1384.69 577.724L1361.98 617.05H1407.39L1384.69 577.724Z" fill="#FBFF2E" fill-opacity="0.1"/>
<path fill-rule="evenodd" clip-rule="evenodd" d="M1309.63 695.84L1277.47 751.552H1341.8L1309.63 695.84ZM1309.63 706.764L1286.93 746.09H1332.34L1309.63 706.764Z" fill="#FBFF2E" fill-opacity="0.1"/>
<path fill-rule="evenodd" clip-rule="evenodd" d="M1213.51 831.873L1181.35 776.16H1245.68L1213.51 831.873ZM1213.51 820.949L1190.81 781.622H1236.22L1213.51 820.949Z" fill="#FBFF2E" fill-opacity="0.1"/>
<path fill-rule="evenodd" clip-rule="evenodd" d="M1426.82 573.792L1394.66 518.08H1458.99L1426.82 573.792ZM1426.82 562.868L1404.12 523.542H1449.53L1426.82 562.868Z" fill="#FBFF2E" fill-opacity="0.1"/>
<path fill-rule="evenodd" clip-rule="evenodd" d="M1351.77 702.832L1319.6 647.12H1383.94L1351.77 702.832ZM1351.77 691.908L1329.06 652.582H1374.47L1351.77 691.908Z" fill="#FBFF2E" fill-opacity="0.1"/>
<path fill-rule="evenodd" clip-rule="evenodd" d="M1339.92 824.88L1307.75 880.592H1372.08L1339.92 824.88ZM1339.92 835.804L1317.21 875.13H1362.62L1339.92 835.804Z" fill="#FBFF2E" fill-opacity="0.1"/>
<path fill-rule="evenodd" clip-rule="evenodd" d="M1382.05 831.873L1349.89 776.16H1414.22L1382.05 831.873ZM1382.05 820.949L1359.35 781.622H1404.76L1382.05 820.949Z" fill="#FBFF2E" fill-opacity="0.1"/>
<path fill-rule="evenodd" clip-rule="evenodd" d="M1394.12 39.88L1361.96 95.5922H1426.29L1394.12 39.88ZM1394.12 50.804L1371.42 90.1303H1416.83L1394.12 50.804Z" fill="#FBFF2E" fill-opacity="0.1"/>
<path fill-rule="evenodd" clip-rule="evenodd" d="M1257.18 168.92L1225.02 224.632H1289.35L1257.18 168.92ZM1257.18 179.844L1234.48 219.17H1279.89L1257.18 179.844Z" fill="#FBFF2E" fill-opacity="0.1"/>
<path fill-rule="evenodd" clip-rule="evenodd" d="M1436.26 46.8726L1404.09 -8.83968H1468.42L1436.26 46.8726ZM1436.26 35.9486L1413.55 -3.3777H1458.96L1436.26 35.9486Z" fill="#FBFF2E" fill-opacity="0.1"/>
<path fill-rule="evenodd" clip-rule="evenodd" d="M1299.32 175.913L1267.15 120.2H1331.48L1299.32 175.913ZM1299.32 164.989L1276.61 125.662H1322.02L1299.32 164.989Z" fill="#FBFF2E" fill-opacity="0.1"/>
<path fill-rule="evenodd" clip-rule="evenodd" d="M1425.73 168.92L1393.56 224.632H1457.89L1425.73 168.92ZM1425.73 179.844L1403.02 219.17H1448.43L1425.73 179.844Z" fill="#FBFF2E" fill-opacity="0.1"/>
<path fill-rule="evenodd" clip-rule="evenodd" d="M1467.86 175.913L1435.7 120.2H1500.03L1467.86 175.913ZM1467.86 164.989L1445.16 125.662H1490.57L1467.86 164.989Z" fill="#FBFF2E" fill-opacity="0.1"/>
<path fill-rule="evenodd" clip-rule="evenodd" d="M1341.45 168.92L1309.29 224.632H1373.62L1341.45 168.92ZM1341.45 179.844L1318.75 219.17H1364.16L1341.45 179.844Z" fill="#FBFF2E" fill-opacity="0.1"/>
<path fill-rule="evenodd" clip-rule="evenodd" d="M1383.59 175.913L1351.42 120.2H1415.76L1383.59 175.913ZM1383.59 164.989L1360.88 125.662H1406.3L1383.59 164.989Z" fill="#FBFF2E" fill-opacity="0.1"/>
<path fill-rule="evenodd" clip-rule="evenodd" d="M740.526 437.76L708.361 493.472H772.692L740.526 437.76ZM740.526 448.684L717.821 488.01H763.231L740.526 448.684Z" fill="#FBFF2E" fill-opacity="0.1"/>
<path fill-rule="evenodd" clip-rule="evenodd" d="M603.586 566.801L571.42 622.513H635.751L603.586 566.801ZM603.586 577.725L580.881 617.051H626.291L603.586 577.725Z" fill="#FBFF2E" fill-opacity="0.1"/>
<path fill-rule="evenodd" clip-rule="evenodd" d="M878.783 308.721L846.618 364.433H910.949L878.783 308.721ZM878.783 319.645L856.078 358.971H901.488L878.783 319.645Z" fill="#FBFF2E" fill-opacity="0.1"/>
<path fill-rule="evenodd" clip-rule="evenodd" d="M528.532 695.841L496.366 751.553H560.697L528.532 695.841ZM528.532 706.765L505.827 746.091H551.237L528.532 706.765Z" fill="#FBFF2E" fill-opacity="0.1"/>
<path fill-rule="evenodd" clip-rule="evenodd" d="M782.662 444.752L750.496 389.04H814.827L782.662 444.752ZM782.662 433.828L759.957 394.502H805.367L782.662 433.828Z" fill="#FBFF2E" fill-opacity="0.1"/>
<path fill-rule="evenodd" clip-rule="evenodd" d="M645.721 573.794L613.556 518.081H677.887L645.721 573.794ZM645.721 562.87L623.016 523.543H668.426L645.721 562.87Z" fill="#FBFF2E" fill-opacity="0.1"/>
<path fill-rule="evenodd" clip-rule="evenodd" d="M920.919 315.714L888.753 260.001H953.084L920.919 315.714ZM920.919 304.79L898.214 265.463H943.624L920.919 304.79Z" fill="#FBFF2E" fill-opacity="0.1"/>
<path fill-rule="evenodd" clip-rule="evenodd" d="M570.667 702.834L538.502 647.122H602.833L570.667 702.834ZM570.667 691.91L547.962 652.584H593.372L570.667 691.91Z" fill="#FBFF2E" fill-opacity="0.1"/>
<path fill-rule="evenodd" clip-rule="evenodd" d="M541.699 308.72L509.534 364.432H573.865L541.699 308.72ZM541.699 319.644L518.994 358.97H564.404L541.699 319.644Z" fill="#FBFF2E" fill-opacity="0.1"/>
<path fill-rule="evenodd" clip-rule="evenodd" d="M1077.61 437.76L1045.45 493.472H1109.78L1077.61 437.76ZM1077.61 448.684L1054.91 488.01H1100.32L1077.61 448.684Z" fill="#FBFF2E" fill-opacity="0.1"/>
<path fill-rule="evenodd" clip-rule="evenodd" d="M727.359 824.88L695.193 880.592H759.524L727.359 824.88ZM727.359 835.804L704.654 875.13H750.064L727.359 835.804Z" fill="#FBFF2E" fill-opacity="0.1"/>
<path fill-rule="evenodd" clip-rule="evenodd" d="M940.67 566.801L908.504 622.513H972.835L940.67 566.801ZM940.67 577.725L917.965 617.051H963.375L940.67 577.725Z" fill="#FBFF2E" fill-opacity="0.1"/>
<path fill-rule="evenodd" clip-rule="evenodd" d="M1215.87 308.721L1183.7 364.433H1248.03L1215.87 308.721ZM1215.87 319.645L1193.16 358.971H1238.57L1215.87 319.645Z" fill="#FBFF2E" fill-opacity="0.1"/>
<path fill-rule="evenodd" clip-rule="evenodd" d="M865.616 695.841L833.451 751.553H897.782L865.616 695.841ZM865.616 706.765L842.911 746.091H888.321L865.616 706.765Z" fill="#FBFF2E" fill-opacity="0.1"/>
<path fill-rule="evenodd" clip-rule="evenodd" d="M583.835 315.712L551.669 260H616L583.835 315.712ZM583.835 304.788L561.13 265.462H606.54L583.835 304.788Z" fill="#FBFF2E" fill-opacity="0.1"/>
<path fill-rule="evenodd" clip-rule="evenodd" d="M1119.75 444.752L1087.58 389.04H1151.91L1119.75 444.752ZM1119.75 433.828L1097.04 394.502H1142.45L1119.75 433.828Z" fill="#FBFF2E" fill-opacity="0.1"/>
<path fill-rule="evenodd" clip-rule="evenodd" d="M769.494 831.873L737.329 776.16H801.66L769.494 831.873ZM769.494 820.949L746.789 781.622H792.199L769.494 820.949Z" fill="#FBFF2E" fill-opacity="0.1"/>
<path fill-rule="evenodd" clip-rule="evenodd" d="M982.806 573.794L950.64 518.081H1014.97L982.806 573.794ZM982.806 562.87L960.101 523.543H1005.51L982.806 562.87Z" fill="#FBFF2E" fill-opacity="0.1"/>
<path fill-rule="evenodd" clip-rule="evenodd" d="M1258 315.714L1225.84 260.001H1290.17L1258 315.714ZM1258 304.79L1235.3 265.463H1280.71L1258 304.79Z" fill="#FBFF2E" fill-opacity="0.1"/>
<path fill-rule="evenodd" clip-rule="evenodd" d="M907.752 702.834L875.586 647.122H939.917L907.752 702.834ZM907.752 691.91L885.047 652.584H930.457L907.752 691.91Z" fill="#FBFF2E" fill-opacity="0.1"/>
<path fill-rule="evenodd" clip-rule="evenodd" d="M909.068 437.76L876.903 493.472H941.234L909.068 437.76ZM909.068 448.684L886.363 488.01H931.773L909.068 448.684Z" fill="#FBFF2E" fill-opacity="0.1"/>
<path fill-rule="evenodd" clip-rule="evenodd" d="M558.817 824.88L526.651 880.592H590.982L558.817 824.88ZM558.817 835.804L536.112 875.13H581.522L558.817 835.804Z" fill="#FBFF2E" fill-opacity="0.1"/>
<path fill-rule="evenodd" clip-rule="evenodd" d="M772.128 566.801L739.962 622.513H804.293L772.128 566.801ZM772.128 577.725L749.423 617.051H794.833L772.128 577.725Z" fill="#FBFF2E" fill-opacity="0.1"/>
<path fill-rule="evenodd" clip-rule="evenodd" d="M1047.33 308.721L1015.16 364.433H1079.49L1047.33 308.721ZM1047.33 319.645L1024.62 358.971H1070.03L1047.33 319.645Z" fill="#FBFF2E" fill-opacity="0.1"/>
<path fill-rule="evenodd" clip-rule="evenodd" d="M697.074 695.841L664.908 751.553H729.239L697.074 695.841ZM697.074 706.765L674.369 746.091H719.779L697.074 706.765Z" fill="#FBFF2E" fill-opacity="0.1"/>
<path fill-rule="evenodd" clip-rule="evenodd" d="M951.204 444.752L919.039 389.04H983.37L951.204 444.752ZM951.204 433.828L928.499 394.502H973.909L951.204 433.828Z" fill="#FBFF2E" fill-opacity="0.1"/>
<path fill-rule="evenodd" clip-rule="evenodd" d="M600.952 831.873L568.787 776.16H633.118L600.952 831.873ZM600.952 820.949L578.247 781.622H623.657L600.952 820.949Z" fill="#FBFF2E" fill-opacity="0.1"/>
<path fill-rule="evenodd" clip-rule="evenodd" d="M814.263 573.794L782.098 518.081H846.429L814.263 573.794ZM814.263 562.87L791.558 523.543H836.968L814.263 562.87Z" fill="#FBFF2E" fill-opacity="0.1"/>
<path fill-rule="evenodd" clip-rule="evenodd" d="M1089.46 315.714L1057.3 260.001H1121.63L1089.46 315.714ZM1089.46 304.79L1066.76 265.463H1112.17L1089.46 304.79Z" fill="#FBFF2E" fill-opacity="0.1"/>
<path fill-rule="evenodd" clip-rule="evenodd" d="M739.209 702.834L707.044 647.122H771.375L739.209 702.834ZM739.209 691.91L716.504 652.584H761.914L739.209 691.91Z" fill="#FBFF2E" fill-opacity="0.1"/>
<path fill-rule="evenodd" clip-rule="evenodd" d="M571.984 437.76L539.819 493.472H604.15L571.984 437.76ZM571.984 448.684L549.279 488.01H594.689L571.984 448.684Z" fill="#FBFF2E" fill-opacity="0.1"/>
<path fill-rule="evenodd" clip-rule="evenodd" d="M710.241 308.72L678.076 364.432H742.407L710.241 308.72ZM710.241 319.644L687.536 358.97H732.946L710.241 319.644Z" fill="#FBFF2E" fill-opacity="0.1"/>
<path fill-rule="evenodd" clip-rule="evenodd" d="M1246.15 437.76L1213.99 493.472H1278.32L1246.15 437.76ZM1246.15 448.684L1223.45 488.01H1268.86L1246.15 448.684Z" fill="#FBFF2E" fill-opacity="0.1"/>
<path fill-rule="evenodd" clip-rule="evenodd" d="M895.901 824.88L863.735 880.592H928.066L895.901 824.88ZM895.901 835.804L873.196 875.13H918.606L895.901 835.804Z" fill="#FBFF2E" fill-opacity="0.1"/>
<path fill-rule="evenodd" clip-rule="evenodd" d="M1109.21 566.801L1077.05 622.513H1141.38L1109.21 566.801ZM1109.21 577.725L1086.51 617.051H1131.92L1109.21 577.725Z" fill="#FBFF2E" fill-opacity="0.1"/>
<path fill-rule="evenodd" clip-rule="evenodd" d="M1384.41 308.721L1352.24 364.433H1416.58L1384.41 308.721ZM1384.41 319.645L1361.7 358.971H1407.11L1384.41 319.645Z" fill="#FBFF2E" fill-opacity="0.1"/>
<path fill-rule="evenodd" clip-rule="evenodd" d="M1034.16 695.841L1001.99 751.553H1066.32L1034.16 695.841ZM1034.16 706.765L1011.45 746.091H1056.86L1034.16 706.765Z" fill="#FBFF2E" fill-opacity="0.1"/>
<path fill-rule="evenodd" clip-rule="evenodd" d="M614.12 444.752L581.954 389.04H646.285L614.12 444.752ZM614.12 433.828L591.415 394.502H636.825L614.12 433.828Z" fill="#FBFF2E" fill-opacity="0.1"/>
<path fill-rule="evenodd" clip-rule="evenodd" d="M752.377 315.712L720.211 260H784.542L752.377 315.712ZM752.377 304.788L729.672 265.462H775.082L752.377 304.788Z" fill="#FBFF2E" fill-opacity="0.1"/>
<path fill-rule="evenodd" clip-rule="evenodd" d="M1288.29 444.752L1256.12 389.04H1320.45L1288.29 444.752ZM1288.29 433.828L1265.58 394.502H1310.99L1288.29 433.828Z" fill="#FBFF2E" fill-opacity="0.1"/>
<path fill-rule="evenodd" clip-rule="evenodd" d="M938.037 831.873L905.871 776.16H970.202L938.037 831.873ZM938.037 820.949L915.332 781.622H960.742L938.037 820.949Z" fill="#FBFF2E" fill-opacity="0.1"/>
<path fill-rule="evenodd" clip-rule="evenodd" d="M1151.35 573.794L1119.18 518.081H1183.51L1151.35 573.794ZM1151.35 562.87L1128.64 523.543H1174.05L1151.35 562.87Z" fill="#FBFF2E" fill-opacity="0.1"/>
<path fill-rule="evenodd" clip-rule="evenodd" d="M1426.55 315.714L1394.38 260.001H1458.71L1426.55 315.714ZM1426.55 304.79L1403.84 265.463H1449.25L1426.55 304.79Z" fill="#FBFF2E" fill-opacity="0.1"/>
<path fill-rule="evenodd" clip-rule="evenodd" d="M1076.29 702.834L1044.13 647.122H1108.46L1076.29 702.834ZM1076.29 691.91L1053.59 652.584H1099L1076.29 691.91Z" fill="#FBFF2E" fill-opacity="0.1"/>
<path fill-rule="evenodd" clip-rule="evenodd" d="M824.797 437.76L792.632 493.472H856.963L824.797 437.76ZM824.797 448.684L802.092 488.01H847.502L824.797 448.684Z" fill="#FBFF2E" fill-opacity="0.1"/>
<path fill-rule="evenodd" clip-rule="evenodd" d="M687.857 566.801L655.691 622.513H720.022L687.857 566.801ZM687.857 577.725L665.152 617.051H710.562L687.857 577.725Z" fill="#FBFF2E" fill-opacity="0.1"/>
<path fill-rule="evenodd" clip-rule="evenodd" d="M963.055 308.721L930.889 364.433H995.22L963.055 308.721ZM963.055 319.645L940.35 358.971H985.76L963.055 319.645Z" fill="#FBFF2E" fill-opacity="0.1"/>
<path fill-rule="evenodd" clip-rule="evenodd" d="M612.803 695.841L580.637 751.553H644.968L612.803 695.841ZM612.803 706.765L590.098 746.091H635.508L612.803 706.765Z" fill="#FBFF2E" fill-opacity="0.1"/>
<path fill-rule="evenodd" clip-rule="evenodd" d="M866.933 444.752L834.767 389.04H899.098L866.933 444.752ZM866.933 433.828L844.228 394.502H889.638L866.933 433.828Z" fill="#FBFF2E" fill-opacity="0.1"/>
<path fill-rule="evenodd" clip-rule="evenodd" d="M516.681 831.873L484.516 776.16H548.847L516.681 831.873ZM516.681 820.949L493.976 781.622H539.386L516.681 820.949Z" fill="#FBFF2E" fill-opacity="0.1"/>
<path fill-rule="evenodd" clip-rule="evenodd" d="M729.992 573.794L697.827 518.081H762.158L729.992 573.794ZM729.992 562.87L707.287 523.543H752.697L729.992 562.87Z" fill="#FBFF2E" fill-opacity="0.1"/>
<path fill-rule="evenodd" clip-rule="evenodd" d="M1005.19 315.714L973.024 260.001H1037.36L1005.19 315.714ZM1005.19 304.79L982.485 265.463H1027.89L1005.19 304.79Z" fill="#FBFF2E" fill-opacity="0.1"/>
<path fill-rule="evenodd" clip-rule="evenodd" d="M654.938 702.834L622.773 647.122H687.104L654.938 702.834ZM654.938 691.91L632.233 652.584H677.643L654.938 691.91Z" fill="#FBFF2E" fill-opacity="0.1"/>
<path fill-rule="evenodd" clip-rule="evenodd" d="M625.97 308.72L593.805 364.432H658.136L625.97 308.72ZM625.97 319.644L603.265 358.97H648.675L625.97 319.644Z" fill="#FBFF2E" fill-opacity="0.1"/>
<path fill-rule="evenodd" clip-rule="evenodd" d="M1161.88 437.76L1129.72 493.472H1194.05L1161.88 437.76ZM1161.88 448.684L1139.18 488.01H1184.59L1161.88 448.684Z" fill="#FBFF2E" fill-opacity="0.1"/>
<path fill-rule="evenodd" clip-rule="evenodd" d="M811.63 824.88L779.464 880.592H843.795L811.63 824.88ZM811.63 835.804L788.925 875.13H834.335L811.63 835.804Z" fill="#FBFF2E" fill-opacity="0.1"/>
<path fill-rule="evenodd" clip-rule="evenodd" d="M1024.94 566.801L992.776 622.513H1057.11L1024.94 566.801ZM1024.94 577.725L1002.24 617.051H1047.65L1024.94 577.725Z" fill="#FBFF2E" fill-opacity="0.1"/>
<path fill-rule="evenodd" clip-rule="evenodd" d="M1300.14 308.721L1267.97 364.433H1332.3L1300.14 308.721ZM1300.14 319.645L1277.43 358.971H1322.84L1300.14 319.645Z" fill="#FBFF2E" fill-opacity="0.1"/>
<path fill-rule="evenodd" clip-rule="evenodd" d="M949.887 695.841L917.722 751.553H982.053L949.887 695.841ZM949.887 706.765L927.182 746.091H972.592L949.887 706.765Z" fill="#FBFF2E" fill-opacity="0.1"/>
<path fill-rule="evenodd" clip-rule="evenodd" d="M529.849 444.752L497.683 389.04H562.014L529.849 444.752ZM529.849 433.828L507.144 394.502H552.554L529.849 433.828Z" fill="#FBFF2E" fill-opacity="0.1"/>
<path fill-rule="evenodd" clip-rule="evenodd" d="M668.106 315.712L635.94 260H700.271L668.106 315.712ZM668.106 304.788L645.401 265.462H690.811L668.106 304.788Z" fill="#FBFF2E" fill-opacity="0.1"/>
<path fill-rule="evenodd" clip-rule="evenodd" d="M1204.02 444.752L1171.85 389.04H1236.18L1204.02 444.752ZM1204.02 433.828L1181.31 394.502H1226.72L1204.02 433.828Z" fill="#FBFF2E" fill-opacity="0.1"/>
<path fill-rule="evenodd" clip-rule="evenodd" d="M853.766 831.873L821.6 776.16H885.931L853.766 831.873ZM853.766 820.949L831.061 781.622H876.471L853.766 820.949Z" fill="#FBFF2E" fill-opacity="0.1"/>
<path fill-rule="evenodd" clip-rule="evenodd" d="M1067.08 573.794L1034.91 518.081H1099.24L1067.08 573.794ZM1067.08 562.87L1044.37 523.543H1089.78L1067.08 562.87Z" fill="#FBFF2E" fill-opacity="0.1"/>
<path fill-rule="evenodd" clip-rule="evenodd" d="M1342.27 315.714L1310.11 260.001H1374.44L1342.27 315.714ZM1342.27 304.79L1319.57 265.463H1364.98L1342.27 304.79Z" fill="#FBFF2E" fill-opacity="0.1"/>
<path fill-rule="evenodd" clip-rule="evenodd" d="M992.023 702.834L959.857 647.122H1024.19L992.023 702.834ZM992.023 691.91L969.318 652.584H1014.73L992.023 691.91Z" fill="#FBFF2E" fill-opacity="0.1"/>
<path fill-rule="evenodd" clip-rule="evenodd" d="M993.339 437.76L961.174 493.472H1025.5L993.339 437.76ZM993.339 448.684L970.634 488.01H1016.04L993.339 448.684Z" fill="#FBFF2E" fill-opacity="0.1"/>
<path fill-rule="evenodd" clip-rule="evenodd" d="M643.088 824.88L610.922 880.592H675.253L643.088 824.88ZM643.088 835.804L620.383 875.13H665.793L643.088 835.804Z" fill="#FBFF2E" fill-opacity="0.1"/>
<path fill-rule="evenodd" clip-rule="evenodd" d="M856.399 566.801L824.233 622.513H888.564L856.399 566.801ZM856.399 577.725L833.694 617.051H879.104L856.399 577.725Z" fill="#FBFF2E" fill-opacity="0.1"/>
<path fill-rule="evenodd" clip-rule="evenodd" d="M1131.6 308.721L1099.43 364.433H1163.76L1131.6 308.721ZM1131.6 319.645L1108.89 358.971H1154.3L1131.6 319.645Z" fill="#FBFF2E" fill-opacity="0.1"/>
<path fill-rule="evenodd" clip-rule="evenodd" d="M781.345 695.841L749.18 751.553H813.511L781.345 695.841ZM781.345 706.765L758.64 746.091H804.05L781.345 706.765Z" fill="#FBFF2E" fill-opacity="0.1"/>
<path fill-rule="evenodd" clip-rule="evenodd" d="M499.564 315.712L467.398 260H531.729L499.564 315.712ZM499.564 304.788L476.859 265.462H522.269L499.564 304.788Z" fill="#FBFF2E" fill-opacity="0.1"/>
<path fill-rule="evenodd" clip-rule="evenodd" d="M1035.48 444.752L1003.31 389.04H1067.64L1035.48 444.752ZM1035.48 433.828L1012.77 394.502H1058.18L1035.48 433.828Z" fill="#FBFF2E" fill-opacity="0.1"/>
<path fill-rule="evenodd" clip-rule="evenodd" d="M685.223 831.873L653.058 776.16H717.389L685.223 831.873ZM685.223 820.949L662.518 781.622H707.928L685.223 820.949Z" fill="#FBFF2E" fill-opacity="0.1"/>
<path fill-rule="evenodd" clip-rule="evenodd" d="M898.535 573.794L866.369 518.081H930.7L898.535 573.794ZM898.535 562.87L875.83 523.543H921.24L898.535 562.87Z" fill="#FBFF2E" fill-opacity="0.1"/>
<path fill-rule="evenodd" clip-rule="evenodd" d="M1173.73 315.714L1141.57 260.001H1205.9L1173.73 315.714ZM1173.73 304.79L1151.03 265.463H1196.44L1173.73 304.79Z" fill="#FBFF2E" fill-opacity="0.1"/>
<path fill-rule="evenodd" clip-rule="evenodd" d="M823.48 702.834L791.315 647.122H855.646L823.48 702.834ZM823.48 691.91L800.775 652.584H846.185L823.48 691.91Z" fill="#FBFF2E" fill-opacity="0.1"/>
<path fill-rule="evenodd" clip-rule="evenodd" d="M656.255 437.76L624.09 493.472H688.421L656.255 437.76ZM656.255 448.684L633.55 488.01H678.96L656.255 448.684Z" fill="#FBFF2E" fill-opacity="0.1"/>
<path fill-rule="evenodd" clip-rule="evenodd" d="M519.315 566.8L487.149 622.512H551.48L519.315 566.8ZM519.315 577.724L496.61 617.05H542.02L519.315 577.724Z" fill="#FBFF2E" fill-opacity="0.1"/>
<path fill-rule="evenodd" clip-rule="evenodd" d="M794.512 308.72L762.347 364.432H826.678L794.512 308.72ZM794.512 319.644L771.807 358.97H817.217L794.512 319.644Z" fill="#FBFF2E" fill-opacity="0.1"/>
<path fill-rule="evenodd" clip-rule="evenodd" d="M1330.42 437.76L1298.26 493.472H1362.59L1330.42 437.76ZM1330.42 448.684L1307.72 488.01H1353.13L1330.42 448.684Z" fill="#FBFF2E" fill-opacity="0.1"/>
<path fill-rule="evenodd" clip-rule="evenodd" d="M980.172 824.88L948.007 880.592H1012.34L980.172 824.88ZM980.172 835.804L957.467 875.13H1002.88L980.172 835.804Z" fill="#FBFF2E" fill-opacity="0.1"/>
<path fill-rule="evenodd" clip-rule="evenodd" d="M1193.48 566.801L1161.32 622.513H1225.65L1193.48 566.801ZM1193.48 577.725L1170.78 617.051H1216.19L1193.48 577.725Z" fill="#FBFF2E" fill-opacity="0.1"/>
<path fill-rule="evenodd" clip-rule="evenodd" d="M1468.68 308.721L1436.52 364.433H1500.85L1468.68 308.721ZM1468.68 319.645L1445.98 358.971H1491.39L1468.68 319.645Z" fill="#FBFF2E" fill-opacity="0.1"/>
<path fill-rule="evenodd" clip-rule="evenodd" d="M1118.43 695.841L1086.26 751.553H1150.59L1118.43 695.841ZM1118.43 706.765L1095.72 746.091H1141.13L1118.43 706.765Z" fill="#FBFF2E" fill-opacity="0.1"/>
<path fill-rule="evenodd" clip-rule="evenodd" d="M698.391 444.752L666.225 389.04H730.556L698.391 444.752ZM698.391 433.828L675.686 394.502H721.096L698.391 433.828Z" fill="#FBFF2E" fill-opacity="0.1"/>
<path fill-rule="evenodd" clip-rule="evenodd" d="M561.45 573.792L529.285 518.08H593.616L561.45 573.792ZM561.45 562.868L538.745 523.542H584.155L561.45 562.868Z" fill="#FBFF2E" fill-opacity="0.1"/>
<path fill-rule="evenodd" clip-rule="evenodd" d="M836.648 315.712L804.482 260H868.813L836.648 315.712ZM836.648 304.788L813.943 265.462H859.353L836.648 304.788Z" fill="#FBFF2E" fill-opacity="0.1"/>
<path fill-rule="evenodd" clip-rule="evenodd" d="M1372.56 444.752L1340.39 389.04H1404.72L1372.56 444.752ZM1372.56 433.828L1349.85 394.502H1395.26L1372.56 433.828Z" fill="#FBFF2E" fill-opacity="0.1"/>
<path fill-rule="evenodd" clip-rule="evenodd" d="M1022.31 831.873L990.142 776.16H1054.47L1022.31 831.873ZM1022.31 820.949L999.603 781.622H1045.01L1022.31 820.949Z" fill="#FBFF2E" fill-opacity="0.1"/>
<path fill-rule="evenodd" clip-rule="evenodd" d="M1235.62 573.794L1203.45 518.081H1267.78L1235.62 573.794ZM1235.62 562.87L1212.91 523.543H1258.32L1235.62 562.87Z" fill="#FBFF2E" fill-opacity="0.1"/>
<path fill-rule="evenodd" clip-rule="evenodd" d="M1160.56 702.834L1128.4 647.122H1192.73L1160.56 702.834ZM1160.56 691.91L1137.86 652.584H1183.27L1160.56 691.91Z" fill="#FBFF2E" fill-opacity="0.1"/>
<path fill-rule="evenodd" clip-rule="evenodd" d="M697.293 39.88L665.127 95.5922H729.458L697.293 39.88ZM697.293 50.804L674.588 90.1303H719.998L697.293 50.804Z" fill="#FBFF2E" fill-opacity="0.1"/>
<path fill-rule="evenodd" clip-rule="evenodd" d="M560.352 168.921L528.187 224.634H592.517L560.352 168.921ZM560.352 179.845L537.647 219.172H583.057L560.352 179.845Z" fill="#FBFF2E" fill-opacity="0.1"/>
<path fill-rule="evenodd" clip-rule="evenodd" d="M739.428 46.8726L707.263 -8.83968H771.594L739.428 46.8726ZM739.428 35.9486L716.723 -3.3777H762.133L739.428 35.9486Z" fill="#FBFF2E" fill-opacity="0.1"/>
<path fill-rule="evenodd" clip-rule="evenodd" d="M602.488 175.914L570.322 120.202H634.653L602.488 175.914ZM602.488 164.99L579.783 125.664H625.193L602.488 164.99Z" fill="#FBFF2E" fill-opacity="0.1"/>
<path fill-rule="evenodd" clip-rule="evenodd" d="M1034.38 39.88L1002.21 95.5922H1066.54L1034.38 39.88ZM1034.38 50.804L1011.67 90.1303H1057.08L1034.38 50.804Z" fill="#FBFF2E" fill-opacity="0.1"/>
<path fill-rule="evenodd" clip-rule="evenodd" d="M897.436 168.921L865.271 224.634H929.602L897.436 168.921ZM897.436 179.845L874.731 219.172H920.142L897.436 179.845Z" fill="#FBFF2E" fill-opacity="0.1"/>
<path fill-rule="evenodd" clip-rule="evenodd" d="M1076.51 46.8726L1044.35 -8.83968H1108.68L1076.51 46.8726ZM1076.51 35.9486L1053.81 -3.3777H1099.22L1076.51 35.9486Z" fill="#FBFF2E" fill-opacity="0.1"/>
<path fill-rule="evenodd" clip-rule="evenodd" d="M939.572 175.914L907.406 120.202H971.737L939.572 175.914ZM939.572 164.99L916.867 125.664H962.277L939.572 164.99Z" fill="#FBFF2E" fill-opacity="0.1"/>
<path fill-rule="evenodd" clip-rule="evenodd" d="M865.835 39.88L833.669 95.5922H898L865.835 39.88ZM865.835 50.804L843.13 90.1303H888.54L865.835 50.804Z" fill="#FBFF2E" fill-opacity="0.1"/>
<path fill-rule="evenodd" clip-rule="evenodd" d="M728.894 168.921L696.729 224.634H761.06L728.894 168.921ZM728.894 179.845L706.189 219.172H751.599L728.894 179.845Z" fill="#FBFF2E" fill-opacity="0.1"/>
<path fill-rule="evenodd" clip-rule="evenodd" d="M907.97 46.8726L875.805 -8.83968H940.136L907.97 46.8726ZM907.97 35.9486L885.265 -3.3777H930.675L907.97 35.9486Z" fill="#FBFF2E" fill-opacity="0.1"/>
<path fill-rule="evenodd" clip-rule="evenodd" d="M771.03 175.914L738.864 120.202H803.195L771.03 175.914ZM771.03 164.99L748.325 125.664H793.735L771.03 164.99Z" fill="#FBFF2E" fill-opacity="0.1"/>
<path fill-rule="evenodd" clip-rule="evenodd" d="M528.75 39.88L496.585 95.5922H560.916L528.75 39.88ZM528.75 50.804L506.045 90.1303H551.455L528.75 50.804Z" fill="#FBFF2E" fill-opacity="0.1"/>
<path fill-rule="evenodd" clip-rule="evenodd" d="M1202.92 39.88L1170.75 95.5922H1235.08L1202.92 39.88ZM1202.92 50.804L1180.21 90.1303H1225.62L1202.92 50.804Z" fill="#FBFF2E" fill-opacity="0.1"/>
<path fill-rule="evenodd" clip-rule="evenodd" d="M1065.98 168.921L1033.81 224.634H1098.14L1065.98 168.921ZM1065.98 179.845L1043.27 219.172H1088.68L1065.98 179.845Z" fill="#FBFF2E" fill-opacity="0.1"/>
<path fill-rule="evenodd" clip-rule="evenodd" d="M570.886 46.8726L538.72 -8.83968H603.051L570.886 46.8726ZM570.886 35.9486L548.181 -3.3777H593.591L570.886 35.9486Z" fill="#FBFF2E" fill-opacity="0.1"/>
<path fill-rule="evenodd" clip-rule="evenodd" d="M1245.05 46.8726L1212.89 -8.83968H1277.22L1245.05 46.8726ZM1245.05 35.9486L1222.35 -3.3777H1267.76L1245.05 35.9486Z" fill="#FBFF2E" fill-opacity="0.1"/>
<path fill-rule="evenodd" clip-rule="evenodd" d="M1108.11 175.914L1075.95 120.202H1140.28L1108.11 175.914ZM1108.11 164.99L1085.41 125.664H1130.82L1108.11 164.99Z" fill="#FBFF2E" fill-opacity="0.1"/>
<path fill-rule="evenodd" clip-rule="evenodd" d="M781.564 39.88L749.398 95.5922H813.729L781.564 39.88ZM781.564 50.804L758.859 90.1303H804.269L781.564 50.804Z" fill="#FBFF2E" fill-opacity="0.1"/>
<path fill-rule="evenodd" clip-rule="evenodd" d="M644.623 168.921L612.458 224.634H676.789L644.623 168.921ZM644.623 179.845L621.918 219.172H667.328L644.623 179.845Z" fill="#FBFF2E" fill-opacity="0.1"/>
<path fill-rule="evenodd" clip-rule="evenodd" d="M823.699 46.8726L791.534 -8.83968H855.865L823.699 46.8726ZM823.699 35.9486L800.994 -3.3777H846.404L823.699 35.9486Z" fill="#FBFF2E" fill-opacity="0.1"/>
<path fill-rule="evenodd" clip-rule="evenodd" d="M686.759 175.914L654.593 120.202H718.924L686.759 175.914ZM686.759 164.99L664.054 125.664H709.464L686.759 164.99Z" fill="#FBFF2E" fill-opacity="0.1"/>
<path fill-rule="evenodd" clip-rule="evenodd" d="M1118.65 39.88L1086.48 95.5922H1150.81L1118.65 39.88ZM1118.65 50.804L1095.94 90.1303H1141.35L1118.65 50.804Z" fill="#FBFF2E" fill-opacity="0.1"/>
<path fill-rule="evenodd" clip-rule="evenodd" d="M981.707 168.921L949.542 224.634H1013.87L981.707 168.921ZM981.707 179.845L959.002 219.172H1004.41L981.707 179.845Z" fill="#FBFF2E" fill-opacity="0.1"/>
<path fill-rule="evenodd" clip-rule="evenodd" d="M1160.78 46.8726L1128.62 -8.83968H1192.95L1160.78 46.8726ZM1160.78 35.9486L1138.08 -3.3777H1183.49L1160.78 35.9486Z" fill="#FBFF2E" fill-opacity="0.1"/>
<path fill-rule="evenodd" clip-rule="evenodd" d="M1023.84 175.914L991.678 120.202H1056.01L1023.84 175.914ZM1023.84 164.99L1001.14 125.664H1046.55L1023.84 164.99Z" fill="#FBFF2E" fill-opacity="0.1"/>
<path fill-rule="evenodd" clip-rule="evenodd" d="M950.106 39.88L917.94 95.5922H982.271L950.106 39.88ZM950.106 50.804L927.401 90.1303H972.811L950.106 50.804Z" fill="#FBFF2E" fill-opacity="0.1"/>
<path fill-rule="evenodd" clip-rule="evenodd" d="M813.165 168.921L781 224.634H845.331L813.165 168.921ZM813.165 179.845L790.46 219.172H835.87L813.165 179.845Z" fill="#FBFF2E" fill-opacity="0.1"/>
<path fill-rule="evenodd" clip-rule="evenodd" d="M992.241 46.8726L960.076 -8.83968H1024.41L992.241 46.8726ZM992.241 35.9486L969.536 -3.3777H1014.95L992.241 35.9486Z" fill="#FBFF2E" fill-opacity="0.1"/>
<path fill-rule="evenodd" clip-rule="evenodd" d="M855.301 175.914L823.135 120.202H887.466L855.301 175.914ZM855.301 164.99L832.596 125.664H878.006L855.301 164.99Z" fill="#FBFF2E" fill-opacity="0.1"/>
<path fill-rule="evenodd" clip-rule="evenodd" d="M613.021 39.88L580.856 95.5922H645.187L613.021 39.88ZM613.021 50.804L590.316 90.1303H635.726L613.021 50.804Z" fill="#FBFF2E" fill-opacity="0.1"/>
<path fill-rule="evenodd" clip-rule="evenodd" d="M1287.19 39.88L1255.02 95.5922H1319.36L1287.19 39.88ZM1287.19 50.804L1264.49 90.1303H1309.9L1287.19 50.804Z" fill="#FBFF2E" fill-opacity="0.1"/>
<path fill-rule="evenodd" clip-rule="evenodd" d="M1150.25 168.921L1118.08 224.634H1182.42L1150.25 168.921ZM1150.25 179.845L1127.54 219.172H1172.95L1150.25 179.845Z" fill="#FBFF2E" fill-opacity="0.1"/>
<path fill-rule="evenodd" clip-rule="evenodd" d="M655.157 46.8726L622.992 -8.83968H687.323L655.157 46.8726ZM655.157 35.9486L632.452 -3.3777H677.862L655.157 35.9486Z" fill="#FBFF2E" fill-opacity="0.1"/>
<path fill-rule="evenodd" clip-rule="evenodd" d="M518.217 175.913L486.051 120.2H550.382L518.217 175.913ZM518.217 164.989L495.511 125.662H540.922L518.217 164.989Z" fill="#FBFF2E" fill-opacity="0.1"/>
<path fill-rule="evenodd" clip-rule="evenodd" d="M1329.33 46.8726L1297.16 -8.83968H1361.49L1329.33 46.8726ZM1329.33 35.9486L1306.62 -3.3777H1352.03L1329.33 35.9486Z" fill="#FBFF2E" fill-opacity="0.1"/>
<path fill-rule="evenodd" clip-rule="evenodd" d="M1192.39 175.914L1160.22 120.202H1224.55L1192.39 175.914ZM1192.39 164.99L1169.68 125.664H1215.09L1192.39 164.99Z" fill="#FBFF2E" fill-opacity="0.1"/>
</g>
</g>
<rect x="797.901" y="327.956" width="88.6227" height="196.836" rx="44.3114" transform="rotate(-0.178864 797.901 327.956)" fill="#8B6448"/>
<path d="M602.344 624.376C537.603 689.118 533.467 805.82 539.492 856.078C570.199 847.488 632.476 830.121 635.928 829.375C640.242 828.442 651.437 804.42 695.398 703.67C739.36 602.92 683.271 543.45 602.344 624.376Z" fill="#9A7052"/>
<path d="M633.518 609.683C568.776 674.424 564.641 791.126 570.666 841.385C601.373 832.795 663.649 815.428 667.101 814.681C671.416 813.748 682.61 789.727 726.572 688.977C770.533 588.227 714.444 528.756 633.518 609.683Z" fill="url(#paint0_linear)"/>
<path d="M768.891 437.066C629.553 458.445 548.5 624.612 537.306 694.072C563.892 694.072 616.055 685.5 633.5 685.5C633.5 709.791 625.5 770 625.5 832.953H1015.08C1015.08 813.5 1013 795.545 1015.08 776.98C1023.54 701.567 1022 638.065 1015.08 581.066C1009.91 538.531 986.25 403.715 768.891 437.066Z" fill="#F5F5F5"/>
<path d="M942.671 670.968C952.56 706.697 946.791 793.99 942.671 833.171H1015.55C1012.05 824.192 1014.18 829.463 1011.47 814.63C1008.77 799.798 1015.4 787.383 1019.05 783.029C1016.06 779.803 1011.87 770.482 1019.05 759.008C1028.03 744.665 930.311 626.307 942.671 670.968Z" fill="url(#paint1_linear)"/>
<path d="M808.538 470.276C844.36 477.833 875.16 450.997 887.016 437.159C882.001 435.954 866.932 430.792 838.156 429.93C807.022 428.997 769.279 435.216 752.682 440.191C756.375 447.071 772.716 462.72 808.538 470.276Z" fill="#8B6448"/>
<path d="M866.1 349.654C851.367 306.153 801.307 300.899 783.423 303.524C780.489 305.7 737.397 390.128 744.869 410.479C754.21 435.918 805.389 465.402 834.658 449.077C862.42 433.592 880.834 393.154 866.1 349.654Z" fill="url(#paint2_linear)"/>
<path d="M925.164 301.055C916.157 359.281 868.02 378.858 813.676 370.452C759.331 362.046 719.359 328.839 728.366 270.613C737.372 212.387 788.729 172 843.073 180.406C897.418 188.813 934.171 242.829 925.164 301.055Z" fill="black"/>
<circle cx="755.619" cy="208.952" r="32.8251" transform="rotate(8.79318 755.619 208.952)" fill="black"/>
<circle cx="775.473" cy="191.54" r="43.2198" transform="rotate(8.79318 775.473 191.54)" fill="black"/>
<circle cx="790.456" cy="180.571" r="43.2198" transform="rotate(8.79318 790.456 180.571)" fill="black"/>
<circle cx="788.583" cy="167.469" r="43.2198" transform="rotate(8.79318 788.583 167.469)" fill="black"/>
<circle cx="829.485" cy="164.465" r="43.2198" transform="rotate(8.79318 829.485 164.465)" fill="black"/>
<circle cx="869.248" cy="165.08" r="43.2198" transform="rotate(8.79318 869.248 165.08)" fill="black"/>
<circle cx="850.866" cy="162.236" r="43.2198" transform="rotate(8.79318 850.866 162.236)" fill="black"/>
<circle cx="908.743" cy="188.904" r="43.2198" transform="rotate(8.79318 908.743 188.904)" fill="black"/>
<circle cx="887.039" cy="178.903" r="43.2198" transform="rotate(8.79318 887.039 178.903)" fill="black"/>
<circle cx="918.374" cy="212.537" r="43.2198" transform="rotate(8.79318 918.374 212.537)" fill="black"/>
<circle cx="918.517" cy="240.239" r="43.2198" transform="rotate(8.79318 918.517 240.239)" fill="black"/>
<circle cx="917.078" cy="271.017" r="43.2198" transform="rotate(8.79318 917.078 271.017)" fill="black"/>
<ellipse cx="758.982" cy="220.279" rx="45.3608" ry="54.9228" transform="rotate(8.79318 758.982 220.279)" fill="black"/>
<rect x="859.5" y="563.301" width="191.119" height="311.866" rx="95.5596" transform="rotate(-38.2425 859.5 563.301)" fill="#F5F5F5"/>
<path d="M951.929 466.565C951.929 466.565 938.652 463.967 928.209 464.82C917.767 465.673 911.645 468.418 909.436 473.844C903.78 487.734 938.228 482.668 953.884 495.279C998.679 531.359 987.473 592.701 989.534 658.418C991.595 724.135 1051.81 771.412 1114.6 740.008C1194 700.299 1116.68 586.084 1095.31 552.668C1074.03 519.396 1066.92 480.266 1062.51 455.98L1062.45 455.667C1058.05 431.405 1053.38 413.108 1051.81 387.847C1050.79 371.377 1034.66 373.519 1033.75 381.996C1032.85 390.474 1030.88 406.469 1029.86 415.756C1026.36 408.259 1022.57 379.649 1020.24 367.562C1017.92 355.476 998.563 360.255 1000.58 372.936C1002.6 385.618 1000.73 411.708 1000.73 411.708C999.312 408.018 994.314 399.227 989.534 381.74C984.527 363.422 962.765 363.145 966.022 382.384C969.279 401.622 972.958 432.979 968.785 425.445C964.613 417.911 961.863 410.929 955.907 397.048C948.86 380.625 933.964 393.26 936.453 402.366C938.445 409.651 946.413 446.387 951.929 466.565Z" fill="#9A7052" stroke="#9A7052" stroke-width="0.233218"/>
<path d="M1011.2 484.565C1011.2 463.065 1018.7 459.065 1027.7 454.065C1003.2 461.565 1005.7 485.065 1007.7 490.065C1009.7 495.065 1011.2 496.109 1011.2 484.565Z" fill="#845E43"/>
<path d="M993.569 476.8C984.484 469.896 980.439 471.71 975.5 473.823C986.362 466.108 995.507 474.688 996.992 477.12C998.476 479.552 998.446 480.507 993.569 476.8Z" fill="#845E43"/>
<path d="M732.24 416.606C696.656 381.496 716.804 300.614 725.735 259.046L728.808 239.177C739.173 240.78 739.001 246.085 772.203 249.227C827.791 254.488 856.139 242.86 854.784 251.618C850.616 278.562 874.954 282.513 873.579 297.932C867.029 315.106 880.354 313.524 901.716 302.284C919.622 292.862 930.942 317.627 914.716 353.497C901.735 382.194 881.221 374.769 871.102 366.807C866.726 377.012 859.366 394.76 853.018 405.683C846.669 416.606 782.121 465.821 732.24 416.606Z" fill="#8B6448" stroke="#8B6448" stroke-width="0.285186"/>
<path d="M732.31 275.595C727.024 274.041 721.851 277.048 719.926 278.745C717.773 280.26 716.987 282.359 717.528 283.824C717.961 284.996 720.146 283.768 721.185 283.008C723.245 281.766 728.48 279.808 732.945 281.911C738.525 284.539 737.503 285.686 740.127 285.094C742.752 284.502 738.917 277.538 732.31 275.595Z" fill="black" stroke="black" stroke-width="0.151701"/>
<path d="M800.437 283.825C805.945 283.94 809.967 288.37 811.29 290.57C812.885 292.664 812.999 294.902 812.041 296.135C811.274 297.122 809.562 295.291 808.801 294.253C807.213 292.446 802.814 288.998 797.923 289.653C791.81 290.473 792.437 291.875 790.114 290.518C787.791 289.161 793.551 283.681 800.437 283.825Z" fill="black" stroke="black" stroke-width="0.151701"/>
<path d="M753.359 393.852C741.91 392.011 739.5 386.003 739.5 386.003C747.575 411.01 774.747 401.552 780.308 386.003C780.379 385.802 773.749 397.132 753.359 393.852Z" fill="black" stroke="black" stroke-width="0.285186"/>
<path d="M903.266 317.675C896.361 316.606 882.435 332.633 880.405 341.409C880.606 346.634 883.438 344.187 884.62 343.071C886.18 341.6 887.242 332.655 893.484 335.207C899.727 337.76 895.384 345.313 900.685 345.556C905.986 345.799 902.979 337.253 900.585 335.007C898.191 332.761 894.436 330.311 898.176 325.4C901.616 320.882 910.312 323.43 916.063 325.426C917.387 323.707 916.682 319.75 903.266 317.675Z" fill="#6C4F39"/>
<ellipse cx="732.169" cy="306.854" rx="6.70187" ry="6.84446" transform="rotate(8.79318 732.169 306.854)" fill="black"/>
<ellipse cx="792.461" cy="314.819" rx="6.70187" ry="6.84446" transform="rotate(8.79318 792.461 314.819)" fill="black"/>
<path d="M741.859 362.109C752 366.508 769.479 360.358 754.288 356.385C734.041 351.088 742.864 340.602 748.36 326.609C750.978 319.944 756.245 297.096 756.703 294.137C741.387 343.712 741.767 330.063 735.218 343.479C728.67 356.895 736.451 359.763 741.859 362.109Z" fill="#6C4F39"/>
<ellipse cx="818.779" cy="189.175" rx="94.5698" ry="46.5269" transform="rotate(8.79318 818.779 189.175)" fill="black"/>
<path d="M488 786.065C492.167 739.565 513.6 627.565 566 551.565" stroke="#FBFF2E" stroke-opacity="0.1" stroke-width="5"/>
<path d="M714 419.065C702.667 411.732 682.2 382.965 691 326.565" stroke="#FBFF2E" stroke-opacity="0.1" stroke-width="5"/>
<path d="M794 108.565C797.5 105.398 807.5 99.7649 819.5 102.565C833 99.5653 841 98.0647 854 104.565" stroke="#FBFF2E" stroke-opacity="0.1" stroke-width="5"/>
<defs>
<linearGradient id="paint0_linear" x1="655.324" y1="571.865" x2="655.324" y2="841.385" gradientUnits="userSpaceOnUse">
<stop stop-color="#845E43"/>
<stop offset="1" stop-color="#845E43" stop-opacity="0"/>
</linearGradient>
<linearGradient id="paint1_linear" x1="980.536" y1="637.632" x2="974.939" y2="791.556" gradientUnits="userSpaceOnUse">
<stop stop-color="#ADADAD"/>
<stop offset="1" stop-color="#E5E5E5" stop-opacity="0"/>
</linearGradient>
<linearGradient id="paint2_linear" x1="797.343" y1="381.327" x2="836.707" y2="459.714" gradientUnits="userSpaceOnUse">
<stop stop-color="#724E35"/>
<stop offset="0.983954" stop-color="#724E35" stop-opacity="0"/>
</linearGradient>
</defs>
</svg>
