<svg width="375" height="812" viewBox="0 0 375 812" fill="none" xmlns="http://www.w3.org/2000/svg">
<rect x="-1" width="380" height="812" fill="#0D2434"/>
<mask id="mask0" mask-type="alpha" maskUnits="userSpaceOnUse" x="0" y="0" width="379" height="812">
<rect width="379" height="812" fill="#C4C4C4"/>
</mask>
<g mask="url(#mask0)">
<mask id="mask1" mask-type="alpha" maskUnits="userSpaceOnUse" x="-513" y="-88" width="1440" height="900">
<rect x="-513" y="-88" width="1440" height="900" fill="#C4C4C4"/>
</mask>
<g mask="url(#mask1)">
<path d="M767 -412L1515.25 884H18.754L767 -412Z" fill="#EAA942"/>
<mask id="mask2" mask-type="alpha" maskUnits="userSpaceOnUse" x="17" y="-736" width="1874" height="1622">
<path d="M954 -736L1890.17 885.5H17.8265L954 -736Z" fill="#C4C4C4"/>
</mask>
<g mask="url(#mask2)">
<path fill-rule="evenodd" clip-rule="evenodd" d="M227.526 349.76L195.361 405.472H259.692L227.526 349.76ZM227.526 360.684L204.821 400.01H250.231L227.526 360.684Z" fill="#FBFF2E" fill-opacity="0.1"/>
<path fill-rule="evenodd" clip-rule="evenodd" d="M90.5859 478.801L58.4204 534.513H122.751L90.5859 478.801ZM90.5859 489.725L67.8808 529.051H113.291L90.5859 489.725Z" fill="#FBFF2E" fill-opacity="0.1"/>
<path fill-rule="evenodd" clip-rule="evenodd" d="M365.783 220.721L333.618 276.433H397.949L365.783 220.721ZM365.783 231.645L343.078 270.971H388.488L365.783 231.645Z" fill="#FBFF2E" fill-opacity="0.1"/>
<path fill-rule="evenodd" clip-rule="evenodd" d="M15.5317 607.841L-16.6338 663.553H47.6972L15.5317 607.841ZM15.5317 618.765L-7.17335 658.091H38.2367L15.5317 618.765Z" fill="#FBFF2E" fill-opacity="0.1"/>
<path fill-rule="evenodd" clip-rule="evenodd" d="M269.662 356.752L237.496 301.04H301.827L269.662 356.752ZM269.662 345.828L246.957 306.502H292.367L269.662 345.828Z" fill="#FBFF2E" fill-opacity="0.1"/>
<path fill-rule="evenodd" clip-rule="evenodd" d="M132.721 485.794L100.556 430.081H164.887L132.721 485.794ZM132.721 474.87L110.016 435.543H155.426L132.721 474.87Z" fill="#FBFF2E" fill-opacity="0.1"/>
<path fill-rule="evenodd" clip-rule="evenodd" d="M57.6674 614.834L25.502 559.122H89.8329L57.6674 614.834ZM57.6674 603.91L34.9624 564.584H80.3725L57.6674 603.91Z" fill="#FBFF2E" fill-opacity="0.1"/>
<path fill-rule="evenodd" clip-rule="evenodd" d="M28.6992 220.72L-3.46631 276.432H60.8646L28.6992 220.72ZM28.6992 231.644L5.99413 270.97H51.4042L28.6992 231.644Z" fill="#FBFF2E" fill-opacity="0.1"/>
<path fill-rule="evenodd" clip-rule="evenodd" d="M214.359 736.88L182.193 792.592H246.524L214.359 736.88ZM214.359 747.804L191.654 787.13H237.064L214.359 747.804Z" fill="#FBFF2E" fill-opacity="0.1"/>
<path fill-rule="evenodd" clip-rule="evenodd" d="M352.616 607.841L320.451 663.553H384.782L352.616 607.841ZM352.616 618.765L329.911 658.091H375.321L352.616 618.765Z" fill="#FBFF2E" fill-opacity="0.1"/>
<path fill-rule="evenodd" clip-rule="evenodd" d="M70.8347 227.712L38.6692 172H103L70.8347 227.712ZM70.8347 216.788L48.1296 177.462H93.5397L70.8347 216.788Z" fill="#FBFF2E" fill-opacity="0.1"/>
<path fill-rule="evenodd" clip-rule="evenodd" d="M256.494 743.873L224.329 688.16H288.66L256.494 743.873ZM256.494 732.949L233.789 693.622H279.199L256.494 732.949Z" fill="#FBFF2E" fill-opacity="0.1"/>
<path fill-rule="evenodd" clip-rule="evenodd" d="M394.752 614.834L362.586 559.122H426.917L394.752 614.834ZM394.752 603.91L372.047 564.584H417.457L394.752 603.91Z" fill="#FBFF2E" fill-opacity="0.1"/>
<path fill-rule="evenodd" clip-rule="evenodd" d="M396.068 349.76L363.903 405.472H428.234L396.068 349.76ZM396.068 360.684L373.363 400.01H418.773L396.068 360.684Z" fill="#FBFF2E" fill-opacity="0.1"/>
<path fill-rule="evenodd" clip-rule="evenodd" d="M45.8168 736.88L13.6514 792.592H77.9823L45.8168 736.88ZM45.8168 747.804L23.1118 787.13H68.5219L45.8168 747.804Z" fill="#FBFF2E" fill-opacity="0.1"/>
<path fill-rule="evenodd" clip-rule="evenodd" d="M259.128 478.801L226.962 534.513H291.293L259.128 478.801ZM259.128 489.725L236.423 529.051H281.833L259.128 489.725Z" fill="#FBFF2E" fill-opacity="0.1"/>
<path fill-rule="evenodd" clip-rule="evenodd" d="M184.074 607.841L151.908 663.553H216.239L184.074 607.841ZM184.074 618.765L161.369 658.091H206.779L184.074 618.765Z" fill="#FBFF2E" fill-opacity="0.1"/>
<path fill-rule="evenodd" clip-rule="evenodd" d="M87.9521 743.873L55.7866 688.16H120.118L87.9521 743.873ZM87.9521 732.949L65.2471 693.622H110.657L87.9521 732.949Z" fill="#FBFF2E" fill-opacity="0.1"/>
<path fill-rule="evenodd" clip-rule="evenodd" d="M301.263 485.794L269.098 430.081H333.429L301.263 485.794ZM301.263 474.87L278.558 435.543H323.968L301.263 474.87Z" fill="#FBFF2E" fill-opacity="0.1"/>
<path fill-rule="evenodd" clip-rule="evenodd" d="M226.209 614.834L194.044 559.122H258.375L226.209 614.834ZM226.209 603.91L203.504 564.584H248.914L226.209 603.91Z" fill="#FBFF2E" fill-opacity="0.1"/>
<path fill-rule="evenodd" clip-rule="evenodd" d="M58.9841 349.76L26.8186 405.472H91.1496L58.9841 349.76ZM58.9841 360.684L36.279 400.01H81.6891L58.9841 360.684Z" fill="#FBFF2E" fill-opacity="0.1"/>
<path fill-rule="evenodd" clip-rule="evenodd" d="M197.241 220.72L165.076 276.432H229.407L197.241 220.72ZM197.241 231.644L174.536 270.97H219.946L197.241 231.644Z" fill="#FBFF2E" fill-opacity="0.1"/>
<path fill-rule="evenodd" clip-rule="evenodd" d="M382.901 736.88L350.735 792.592H415.066L382.901 736.88ZM382.901 747.804L360.196 787.13H405.606L382.901 747.804Z" fill="#FBFF2E" fill-opacity="0.1"/>
<path fill-rule="evenodd" clip-rule="evenodd" d="M101.12 356.752L68.9541 301.04H133.285L101.12 356.752ZM101.12 345.828L78.4145 306.502H123.825L101.12 345.828Z" fill="#FBFF2E" fill-opacity="0.1"/>
<path fill-rule="evenodd" clip-rule="evenodd" d="M239.377 227.712L207.211 172H271.542L239.377 227.712ZM239.377 216.788L216.672 177.462H262.082L239.377 216.788Z" fill="#FBFF2E" fill-opacity="0.1"/>
<path fill-rule="evenodd" clip-rule="evenodd" d="M311.797 349.76L279.632 405.472H343.963L311.797 349.76ZM311.797 360.684L289.092 400.01H334.502L311.797 360.684Z" fill="#FBFF2E" fill-opacity="0.1"/>
<path fill-rule="evenodd" clip-rule="evenodd" d="M174.857 478.801L142.691 534.513H207.022L174.857 478.801ZM174.857 489.725L152.152 529.051H197.562L174.857 489.725Z" fill="#FBFF2E" fill-opacity="0.1"/>
<path fill-rule="evenodd" clip-rule="evenodd" d="M99.8027 607.841L67.6372 663.553H131.968L99.8027 607.841ZM99.8027 618.765L77.0976 658.091H122.508L99.8027 618.765Z" fill="#FBFF2E" fill-opacity="0.1"/>
<path fill-rule="evenodd" clip-rule="evenodd" d="M353.933 356.752L321.767 301.04H386.098L353.933 356.752ZM353.933 345.828L331.228 306.502H376.638L353.933 345.828Z" fill="#FBFF2E" fill-opacity="0.1"/>
<path fill-rule="evenodd" clip-rule="evenodd" d="M3.6811 743.873L-28.4844 688.16H35.8466L3.6811 743.873ZM3.6811 732.949L-19.0239 693.622H26.3861L3.6811 732.949Z" fill="#FBFF2E" fill-opacity="0.1"/>
<path fill-rule="evenodd" clip-rule="evenodd" d="M216.992 485.794L184.827 430.081H249.158L216.992 485.794ZM216.992 474.87L194.287 435.543H239.697L216.992 474.87Z" fill="#FBFF2E" fill-opacity="0.1"/>
<path fill-rule="evenodd" clip-rule="evenodd" d="M141.938 614.834L109.773 559.122H174.104L141.938 614.834ZM141.938 603.91L119.233 564.584H164.643L141.938 603.91Z" fill="#FBFF2E" fill-opacity="0.1"/>
<path fill-rule="evenodd" clip-rule="evenodd" d="M112.97 220.72L80.8047 276.432H145.136L112.97 220.72ZM112.97 231.644L90.2651 270.97H135.675L112.97 231.644Z" fill="#FBFF2E" fill-opacity="0.1"/>
<path fill-rule="evenodd" clip-rule="evenodd" d="M298.63 736.88L266.464 792.592H330.795L298.63 736.88ZM298.63 747.804L275.925 787.13H321.335L298.63 747.804Z" fill="#FBFF2E" fill-opacity="0.1"/>
<path fill-rule="evenodd" clip-rule="evenodd" d="M16.8486 356.752L-15.3169 301.04H49.0141L16.8486 356.752ZM16.8486 345.828L-5.85646 306.502H39.5536L16.8486 345.828Z" fill="#FBFF2E" fill-opacity="0.1"/>
<path fill-rule="evenodd" clip-rule="evenodd" d="M155.106 227.712L122.94 172H187.271L155.106 227.712ZM155.106 216.788L132.401 177.462H177.811L155.106 216.788Z" fill="#FBFF2E" fill-opacity="0.1"/>
<path fill-rule="evenodd" clip-rule="evenodd" d="M340.766 743.873L308.6 688.16H372.931L340.766 743.873ZM340.766 732.949L318.061 693.622H363.471L340.766 732.949Z" fill="#FBFF2E" fill-opacity="0.1"/>
<path fill-rule="evenodd" clip-rule="evenodd" d="M130.088 736.88L97.9224 792.592H162.253L130.088 736.88ZM130.088 747.804L107.383 787.13H152.793L130.088 747.804Z" fill="#FBFF2E" fill-opacity="0.1"/>
<path fill-rule="evenodd" clip-rule="evenodd" d="M343.399 478.801L311.233 534.513H375.564L343.399 478.801ZM343.399 489.725L320.694 529.051H366.104L343.399 489.725Z" fill="#FBFF2E" fill-opacity="0.1"/>
<path fill-rule="evenodd" clip-rule="evenodd" d="M268.345 607.841L236.18 663.553H300.511L268.345 607.841ZM268.345 618.765L245.64 658.091H291.05L268.345 618.765Z" fill="#FBFF2E" fill-opacity="0.1"/>
<path fill-rule="evenodd" clip-rule="evenodd" d="M-13.4363 227.712L-45.6018 172H18.7291L-13.4363 227.712ZM-13.4363 216.788L-36.1414 177.462H9.26871L-13.4363 216.788Z" fill="#FBFF2E" fill-opacity="0.1"/>
<path fill-rule="evenodd" clip-rule="evenodd" d="M172.223 743.873L140.058 688.16H204.389L172.223 743.873ZM172.223 732.949L149.518 693.622H194.928L172.223 732.949Z" fill="#FBFF2E" fill-opacity="0.1"/>
<path fill-rule="evenodd" clip-rule="evenodd" d="M385.534 485.794L353.369 430.081H417.7L385.534 485.794ZM385.534 474.87L362.829 435.543H408.24L385.534 474.87Z" fill="#FBFF2E" fill-opacity="0.1"/>
<path fill-rule="evenodd" clip-rule="evenodd" d="M310.48 614.834L278.315 559.122H342.646L310.48 614.834ZM310.48 603.91L287.775 564.584H333.185L310.48 603.91Z" fill="#FBFF2E" fill-opacity="0.1"/>
<path fill-rule="evenodd" clip-rule="evenodd" d="M143.255 349.76L111.09 405.472H175.421L143.255 349.76ZM143.255 360.684L120.55 400.01H165.96L143.255 360.684Z" fill="#FBFF2E" fill-opacity="0.1"/>
<path fill-rule="evenodd" clip-rule="evenodd" d="M6.31465 478.8L-25.8508 534.512H38.4801L6.31465 478.8ZM6.31465 489.724L-16.3904 529.05H29.0197L6.31465 489.724Z" fill="#FBFF2E" fill-opacity="0.1"/>
<path fill-rule="evenodd" clip-rule="evenodd" d="M281.512 220.72L249.347 276.432H313.678L281.512 220.72ZM281.512 231.644L258.807 270.97H304.217L281.512 231.644Z" fill="#FBFF2E" fill-opacity="0.1"/>
<path fill-rule="evenodd" clip-rule="evenodd" d="M185.391 356.752L153.225 301.04H217.556L185.391 356.752ZM185.391 345.828L162.686 306.502H208.096L185.391 345.828Z" fill="#FBFF2E" fill-opacity="0.1"/>
<path fill-rule="evenodd" clip-rule="evenodd" d="M48.4501 485.792L16.2847 430.08H80.6156L48.4501 485.792ZM48.4501 474.868L25.7451 435.542H71.1552L48.4501 474.868Z" fill="#FBFF2E" fill-opacity="0.1"/>
<path fill-rule="evenodd" clip-rule="evenodd" d="M323.648 227.712L291.482 172H355.813L323.648 227.712ZM323.648 216.788L300.943 177.462H346.353L323.648 216.788Z" fill="#FBFF2E" fill-opacity="0.1"/>
<path fill-rule="evenodd" clip-rule="evenodd" d="M184.293 -48.12L152.127 7.59224H216.458L184.293 -48.12ZM184.293 -37.196L161.588 2.13026H206.998L184.293 -37.196Z" fill="#FBFF2E" fill-opacity="0.1"/>
<path fill-rule="evenodd" clip-rule="evenodd" d="M47.352 80.9214L15.1865 136.634H79.5175L47.352 80.9214ZM47.352 91.8454L24.647 131.172H70.057L47.352 91.8454Z" fill="#FBFF2E" fill-opacity="0.1"/>
<path fill-rule="evenodd" clip-rule="evenodd" d="M89.4877 87.9139L57.3223 32.2017H121.653L89.4877 87.9139ZM89.4877 76.99L66.7827 37.6637H112.193L89.4877 76.99Z" fill="#FBFF2E" fill-opacity="0.1"/>
<path fill-rule="evenodd" clip-rule="evenodd" d="M384.436 80.9214L352.271 136.634H416.602L384.436 80.9214ZM384.436 91.8454L361.731 131.172H407.142L384.436 91.8454Z" fill="#FBFF2E" fill-opacity="0.1"/>
<path fill-rule="evenodd" clip-rule="evenodd" d="M352.835 -48.12L320.669 7.59224H385L352.835 -48.12ZM352.835 -37.196L330.13 2.13026H375.54L352.835 -37.196Z" fill="#FBFF2E" fill-opacity="0.1"/>
<path fill-rule="evenodd" clip-rule="evenodd" d="M215.894 80.9214L183.729 136.634H248.06L215.894 80.9214ZM215.894 91.8454L193.189 131.172H238.599L215.894 91.8454Z" fill="#FBFF2E" fill-opacity="0.1"/>
<path fill-rule="evenodd" clip-rule="evenodd" d="M258.03 87.9139L225.864 32.2017H290.195L258.03 87.9139ZM258.03 76.99L235.325 37.6637H280.735L258.03 76.99Z" fill="#FBFF2E" fill-opacity="0.1"/>
<path fill-rule="evenodd" clip-rule="evenodd" d="M15.7504 -48.12L-16.415 7.59224H47.9159L15.7504 -48.12ZM15.7504 -37.196L-6.9546 2.13026H38.4555L15.7504 -37.196Z" fill="#FBFF2E" fill-opacity="0.1"/>
<path fill-rule="evenodd" clip-rule="evenodd" d="M268.564 -48.12L236.398 7.59224H300.729L268.564 -48.12ZM268.564 -37.196L245.859 2.13026H291.269L268.564 -37.196Z" fill="#FBFF2E" fill-opacity="0.1"/>
<path fill-rule="evenodd" clip-rule="evenodd" d="M131.623 80.9214L99.4578 136.634H163.789L131.623 80.9214ZM131.623 91.8454L108.918 131.172H154.328L131.623 91.8454Z" fill="#FBFF2E" fill-opacity="0.1"/>
<path fill-rule="evenodd" clip-rule="evenodd" d="M173.759 87.9139L141.593 32.2017H205.924L173.759 87.9139ZM173.759 76.99L151.054 37.6637H196.464L173.759 76.99Z" fill="#FBFF2E" fill-opacity="0.1"/>
<path fill-rule="evenodd" clip-rule="evenodd" d="M300.165 80.9214L268 136.634H332.331L300.165 80.9214ZM300.165 91.8454L277.46 131.172H322.87L300.165 91.8454Z" fill="#FBFF2E" fill-opacity="0.1"/>
<path fill-rule="evenodd" clip-rule="evenodd" d="M342.301 87.9139L310.135 32.2017H374.466L342.301 87.9139ZM342.301 76.99L319.596 37.6637H365.006L342.301 76.99Z" fill="#FBFF2E" fill-opacity="0.1"/>
<path fill-rule="evenodd" clip-rule="evenodd" d="M100.021 -48.12L67.856 7.59224H132.187L100.021 -48.12ZM100.021 -37.196L77.3164 2.13026H122.726L100.021 -37.196Z" fill="#FBFF2E" fill-opacity="0.1"/>
<path fill-rule="evenodd" clip-rule="evenodd" d="M5.2165 87.9127L-26.949 32.2004H37.382L5.2165 87.9127ZM5.2165 76.9887L-17.4885 37.6624H27.9215L5.2165 76.9887Z" fill="#FBFF2E" fill-opacity="0.1"/>
</g>
</g>
</g>
<rect x="248.298" y="527.152" width="50.988" height="113.247" rx="25.494" transform="rotate(-0.178864 248.298 527.152)" fill="#8B6448"/>
<path d="M135.786 697.693C98.5383 734.941 96.1589 802.084 99.6252 831C117.292 826.058 153.122 816.066 155.108 815.637C157.59 815.1 164.031 801.279 189.324 743.314C214.616 685.349 182.346 651.133 135.786 697.693Z" fill="#9A7052"/>
<path d="M153.722 689.24C116.474 726.488 114.094 793.631 117.561 822.546C135.228 817.604 171.058 807.612 173.044 807.183C175.526 806.646 181.967 792.826 207.259 734.86C232.552 676.895 200.282 642.68 153.722 689.24Z" fill="url(#paint0_linear)"/>
<path d="M231.607 589.926C151.441 602.227 104.808 697.829 98.3674 737.792C113.664 737.792 143.675 732.86 153.711 732.86C153.711 746.836 149.109 781.476 149.109 817.695H373.248C373.248 806.503 372.049 796.173 373.248 785.492C378.116 742.104 377.23 705.569 373.248 672.775C370.276 648.303 356.662 570.739 231.607 589.926Z" fill="#F5F5F5"/>
<path d="M331.589 724.499C337.279 745.056 333.96 795.279 331.589 817.821H373.52C371.508 812.655 372.729 815.687 371.172 807.153C369.616 798.62 373.431 791.477 375.533 788.972C373.811 787.116 371.4 781.753 375.533 775.152C380.699 766.9 324.478 698.804 331.589 724.499Z" fill="url(#paint1_linear)"/>
<path d="M254.417 609.034C275.027 613.381 292.748 597.942 299.569 589.98C296.684 589.287 288.014 586.317 271.458 585.821C253.545 585.284 231.831 588.862 222.281 591.725C224.406 595.683 233.807 604.686 254.417 609.034Z" fill="#8B6448"/>
<path d="M287.535 539.635C279.058 514.608 250.257 511.585 239.968 513.095C238.28 514.347 213.487 562.921 217.786 574.63C223.16 589.266 252.606 606.229 269.445 596.837C285.417 587.928 296.012 564.663 287.535 539.635Z" fill="url(#paint2_linear)"/>
<path d="M321.517 511.675C316.335 545.174 288.64 556.438 257.373 551.601C226.107 546.765 203.109 527.66 208.291 494.16C213.473 460.66 243.02 437.424 274.287 442.261C305.553 447.097 326.699 478.175 321.517 511.675Z" fill="black"/>
<circle cx="223.971" cy="458.684" r="18.8855" transform="rotate(8.79318 223.971 458.684)" fill="black"/>
<circle cx="235.394" cy="448.666" r="24.8659" transform="rotate(8.79318 235.394 448.666)" fill="black"/>
<circle cx="244.014" cy="442.356" r="24.8659" transform="rotate(8.79318 244.014 442.356)" fill="black"/>
<circle cx="242.937" cy="434.818" r="24.8659" transform="rotate(8.79318 242.937 434.818)" fill="black"/>
<circle cx="266.469" cy="433.089" r="24.8659" transform="rotate(8.79318 266.469 433.089)" fill="black"/>
<circle cx="289.346" cy="433.443" r="24.8659" transform="rotate(8.79318 289.346 433.443)" fill="black"/>
<circle cx="278.771" cy="431.807" r="24.8659" transform="rotate(8.79318 278.771 431.807)" fill="black"/>
<circle cx="312.069" cy="447.15" r="24.8659" transform="rotate(8.79318 312.069 447.15)" fill="black"/>
<circle cx="299.582" cy="441.396" r="24.8659" transform="rotate(8.79318 299.582 441.396)" fill="black"/>
<circle cx="317.61" cy="460.747" r="24.8659" transform="rotate(8.79318 317.61 460.747)" fill="black"/>
<circle cx="317.693" cy="476.685" r="24.8659" transform="rotate(8.79318 317.693 476.685)" fill="black"/>
<circle cx="316.865" cy="494.393" r="24.8659" transform="rotate(8.79318 316.865 494.393)" fill="black"/>
<ellipse cx="225.906" cy="465.201" rx="26.0978" ry="31.5991" transform="rotate(8.79318 225.906 465.201)" fill="black"/>
<rect x="283.738" y="662.554" width="109.958" height="179.428" rx="54.979" transform="rotate(-38.2425 283.738 662.554)" fill="#F5F5F5"/>
<path d="M336.916 606.899C336.916 606.899 329.277 605.404 323.269 605.894C317.261 606.385 313.739 607.965 312.468 611.086C309.214 619.078 329.033 616.163 338.04 623.419C363.813 644.177 357.365 679.469 358.551 717.279C359.737 755.088 394.382 782.288 430.507 764.22C476.186 741.374 431.701 675.662 419.407 656.437C407.167 637.294 403.077 614.781 400.538 600.809L400.505 600.628C397.969 586.67 395.284 576.143 394.382 561.609C393.794 552.133 384.515 553.365 383.992 558.243C383.47 563.12 382.339 572.323 381.752 577.666C379.741 573.353 377.558 556.892 376.22 549.938C374.882 542.985 363.746 545.734 364.908 553.031C366.071 560.327 364.992 575.338 364.992 575.338C364.177 573.214 361.301 568.157 358.551 558.095C355.67 547.557 343.15 547.397 345.024 558.466C346.898 569.534 349.014 587.575 346.614 583.241C344.213 578.906 342.631 574.889 339.204 566.903C335.15 557.454 326.58 564.724 328.012 569.963C329.158 574.154 333.742 595.29 336.916 606.899Z" fill="#9A7052" stroke="#9A7052" stroke-width="0.134179"/>
<path d="M371.014 617.255C371.014 604.885 375.329 602.584 380.507 599.707C366.411 604.022 367.85 617.543 369 620.419C370.151 623.296 371.014 623.896 371.014 617.255Z" fill="#845E43"/>
<path d="M360.872 612.787C355.646 608.815 353.318 609.859 350.477 611.075C356.726 606.636 361.988 611.572 362.842 612.971C363.696 614.37 363.679 614.92 360.872 612.787Z" fill="#845E43"/>
<path d="M210.52 578.155C190.047 557.955 201.639 511.421 206.778 487.505L208.546 476.074C214.509 476.996 214.41 480.048 233.512 481.856C265.494 484.883 281.804 478.193 281.025 483.231C278.627 498.734 292.629 501.007 291.838 509.877C288.069 519.758 295.736 518.848 308.026 512.382C318.328 506.961 324.841 521.209 315.505 541.847C308.037 558.357 296.235 554.085 290.413 549.504C287.895 555.375 283.661 565.587 280.008 571.871C276.355 578.155 239.219 606.47 210.52 578.155Z" fill="#8B6448" stroke="#8B6448" stroke-width="0.164078"/>
<path d="M210.561 497.027C207.52 496.132 204.544 497.862 203.436 498.839C202.197 499.71 201.745 500.918 202.056 501.761C202.305 502.435 203.563 501.729 204.16 501.291C205.345 500.577 208.358 499.45 210.926 500.66C214.136 502.172 213.549 502.832 215.058 502.491C216.568 502.151 214.362 498.144 210.561 497.027Z" fill="black" stroke="black" stroke-width="0.0872792"/>
<path d="M249.756 501.762C252.925 501.828 255.24 504.376 256.001 505.642C256.918 506.847 256.984 508.134 256.433 508.844C255.991 509.412 255.006 508.358 254.569 507.761C253.655 506.722 251.124 504.737 248.31 505.115C244.793 505.586 245.154 506.393 243.817 505.612C242.481 504.831 245.795 501.679 249.756 501.762Z" fill="black" stroke="black" stroke-width="0.0872792"/>
<path d="M222.671 565.064C216.084 564.005 214.697 560.548 214.697 560.548C219.343 574.936 234.976 569.494 238.175 560.548C238.217 560.433 234.402 566.951 222.671 565.064Z" fill="black" stroke="black" stroke-width="0.164078"/>
<path d="M308.918 521.236C304.945 520.622 296.933 529.842 295.765 534.891C295.881 537.898 297.51 536.49 298.19 535.848C299.087 535.001 299.698 529.855 303.29 531.324C306.881 532.792 304.383 537.138 307.433 537.277C310.483 537.417 308.753 532.501 307.375 531.208C305.998 529.916 303.837 528.507 305.989 525.681C307.968 523.082 312.972 524.547 316.281 525.696C317.042 524.707 316.636 522.43 308.918 521.236Z" fill="#6C4F39"/>
<ellipse cx="210.48" cy="515.011" rx="3.85583" ry="3.93787" transform="rotate(8.79318 210.48 515.011)" fill="black"/>
<ellipse cx="245.168" cy="519.593" rx="3.85583" ry="3.93787" transform="rotate(8.79318 245.168 519.593)" fill="black"/>
<path d="M216.055 546.801C221.889 549.332 231.945 545.794 223.206 543.508C211.557 540.461 216.633 534.427 219.795 526.377C221.301 522.542 224.331 509.397 224.595 507.694C215.783 536.216 216.001 528.364 212.234 536.082C208.467 543.801 212.943 545.451 216.055 546.801Z" fill="#6C4F39"/>
<ellipse cx="260.31" cy="447.306" rx="54.4095" ry="26.7687" transform="rotate(8.79318 260.31 447.306)" fill="black"/>
<path d="M70 790.719C72.3972 763.966 84.7286 699.528 114.876 655.802" stroke="#FBFF2E" stroke-opacity="0.1" stroke-width="2.87669"/>
<path d="M200.026 579.57C193.506 575.351 181.731 558.801 186.794 526.352" stroke="#FBFF2E" stroke-opacity="0.1" stroke-width="2.87669"/>
<path d="M246.053 400.928C248.067 399.106 253.82 395.865 260.724 397.476C268.491 395.75 273.094 394.887 280.573 398.626" stroke="#FBFF2E" stroke-opacity="0.1" stroke-width="2.87669"/>
<defs>
<linearGradient id="paint0_linear" x1="166.268" y1="667.482" x2="166.268" y2="822.546" gradientUnits="userSpaceOnUse">
<stop stop-color="#845E43"/>
<stop offset="1" stop-color="#845E43" stop-opacity="0"/>
</linearGradient>
<linearGradient id="paint1_linear" x1="353.374" y1="705.32" x2="350.154" y2="793.878" gradientUnits="userSpaceOnUse">
<stop stop-color="#ADADAD"/>
<stop offset="1" stop-color="#E5E5E5" stop-opacity="0"/>
</linearGradient>
<linearGradient id="paint2_linear" x1="247.977" y1="557.858" x2="270.624" y2="602.957" gradientUnits="userSpaceOnUse">
<stop stop-color="#724E35"/>
<stop offset="0.983954" stop-color="#724E35" stop-opacity="0"/>
</linearGradient>
</defs>
</svg>
