<?xml version="1.0"?>
<svg xmlns="http://www.w3.org/2000/svg" xmlns:xlink="http://www.w3.org/1999/xlink" version="1.1" id="Capa_1" x="0px" y="0px" viewBox="0 0 496 496" style="enable-background:new 0 0 496 496;" xml:space="preserve" width="40px" height="40px"><g><g>
	<g>
		<path d="M472,112H259.312l-45.656-45.656c-1.5-1.5-3.534-2.344-5.656-2.344H24C10.745,64,0,74.745,0,88v320    c0,13.255,10.745,24,24,24h448c13.255,0,24-10.745,24-24V136C496,122.745,485.255,112,472,112z M480,408c0,4.418-3.582,8-8,8H24    c-4.418,0-8-3.582-8-8V88c0-4.418,3.582-8,8-8h180.688l45.656,45.656c1.5,1.5,3.534,2.344,5.656,2.344h216c4.418,0,8,3.582,8,8    V408z" data-original="#000000" class="active-path" data-old_color="#000000" fill="#48C8FF"/>
	</g>
</g></g> </svg>
