<svg width="29" height="28" viewBox="0 0 29 28" fill="none" xmlns="http://www.w3.org/2000/svg">
<path fill-rule="evenodd" clip-rule="evenodd" d="M14.0001 7.32835e-06C10.6764 0.000454628 7.46124 1.18339 4.9298 3.3372C2.39836 5.49101 0.715765 8.4752 0.183005 11.7559C-0.349755 15.0367 0.302074 18.4 2.02189 21.2441C3.74171 24.0883 6.41732 26.2278 9.5701 27.28C10.2701 27.41 10.5701 26.98 10.5701 26.61C10.5701 26.24 10.5701 25.4 10.5701 24.23C6.6801 25.07 5.8601 22.35 5.8601 22.35C5.58655 21.4928 5.01082 20.7643 4.2401 20.3C2.9701 19.44 4.3401 19.45 4.3401 19.45C4.7837 19.5127 5.20712 19.6759 5.57801 19.9272C5.9489 20.1785 6.25745 20.5112 6.4801 20.9C6.86744 21.5947 7.51484 22.1072 8.27993 22.3247C9.04503 22.5423 9.86519 22.447 10.5601 22.06C10.6166 21.3505 10.9294 20.6858 11.4401 20.19C8.3401 19.83 5.0701 18.63 5.0701 13.27C5.04743 11.8779 5.56333 10.5308 6.5101 9.51001C6.08156 8.3042 6.13167 6.97998 6.6501 5.81001C6.6501 5.81001 7.8201 5.43001 10.5001 7.24001C12.7916 6.61496 15.2086 6.61496 17.5001 7.24001C20.1701 5.43001 21.3401 5.81001 21.3401 5.81001C21.8585 6.97998 21.9086 8.3042 21.4801 9.51001C22.4269 10.5308 22.9428 11.8779 22.9201 13.27C22.9201 18.65 19.6501 19.83 16.5301 20.18C16.8643 20.5188 17.122 20.9252 17.2859 21.372C17.4498 21.8188 17.516 22.2955 17.4801 22.77C17.4801 24.64 17.4801 26.15 17.4801 26.61C17.4801 27.07 17.7301 27.42 18.4801 27.28C21.637 26.2265 24.3154 24.0829 26.035 21.2335C27.7545 18.3841 28.4027 15.0153 27.8634 11.7312C27.3241 8.44712 25.6325 5.46259 23.092 3.31278C20.5514 1.16297 17.3281 -0.0114901 14.0001 7.32835e-06Z" fill="#ADADAD"/>
</svg>
