<svg width="24" height="24" viewBox="0 0 24 24" fill="none" xmlns="http://www.w3.org/2000/svg">
<path d="M22.21 1.69386e-06H1.79C1.32472 -0.00279563 0.876848 0.1767 0.542283 0.500051C0.207717 0.823402 0.0130614 1.2649 0 1.73V22.2C0.0105015 22.666 0.204356 23.109 0.539484 23.4328C0.874612 23.7567 1.32396 23.9354 1.79 23.93H22.21C22.676 23.9354 23.1254 23.7567 23.4605 23.4328C23.7956 23.109 23.9895 22.666 24 22.2V1.73C23.9869 1.2649 23.7923 0.823402 23.4577 0.500051C23.1232 0.1767 22.6753 -0.00279563 22.21 1.69386e-06ZM7.11 20.41H3.59V9H7.11V20.41ZM5.39 7.41C4.84956 7.41016 4.33048 7.19895 3.94369 6.8215C3.55689 6.44404 3.33305 5.93029 3.32 5.39C3.31021 5.11553 3.35706 4.84199 3.45762 4.58641C3.55819 4.33084 3.71031 4.09872 3.90452 3.90452C4.09872 3.71031 4.33084 3.55819 4.58641 3.45763C4.84198 3.35706 5.11553 3.31021 5.39 3.32C5.91284 3.35641 6.40241 3.58979 6.75991 3.97304C7.1174 4.3563 7.31621 4.86089 7.31621 5.385C7.31621 5.90911 7.1174 6.41371 6.75991 6.79696C6.40241 7.18022 5.91284 7.4136 5.39 7.45V7.41ZM20.48 20.34H17V14.76C17 13.43 17 11.7 15.14 11.7C13.28 11.7 13 13.16 13 14.63V20.28H9.44V9H12.76V10.5H12.83C13.1703 9.90903 13.6665 9.42297 14.2643 9.09494C14.8622 8.7669 15.5387 8.60953 16.22 8.64C19.81 8.64 20.48 11.04 20.48 14.09V20.34Z" fill="#ADADAD"/>
</svg>
