<svg width="88" height="21" viewBox="0 0 88 21" fill="none" xmlns="http://www.w3.org/2000/svg">
<path d="M27.6667 20.0983V1.27821H28.6875V4.23863C28.8081 4.10736 28.9194 3.96792 29.0207 3.82131C29.8733 2.05241 31.6716 0.936027 33.6349 0.958077C35.9624 0.88866 37.8538 1.75024 38.9653 3.82131C39.6726 5.10795 40.0618 6.54512 40.1004 8.01284C40.1391 9.48056 39.826 10.9362 39.1874 12.2583C38.1519 14.5793 35.5941 15.7332 32.8558 15.3094C32.0036 15.2369 31.1831 14.9522 30.4693 14.4811C29.7554 14.0101 29.171 13.3677 28.7692 12.6127V20.0975L27.6667 20.0983ZM28.6875 7.93568L28.9162 10.1456C29.3196 12.6609 30.8068 14.1472 33.1416 14.4265C34.2381 14.6068 35.3631 14.4013 36.325 13.8449C37.2869 13.2885 38.026 12.4158 38.4165 11.3755C39.3246 9.21131 39.2576 6.76131 38.2368 4.64778C37.8201 3.71521 37.1112 2.94362 36.2171 2.44961C35.3231 1.9556 34.2926 1.76601 33.2813 1.90949C32.332 1.97855 31.4278 2.34153 30.6943 2.94802C29.9608 3.5545 29.4343 4.37438 29.1881 5.29376C28.9707 6.16379 28.8036 7.04562 28.6875 7.93486V7.93568ZM60.9442 10.4935C60.7894 11.8186 60.1586 13.0424 59.1691 13.9372C58.1796 14.8321 56.8988 15.3371 55.5648 15.3584C51.2839 15.574 49.2749 12.7311 48.9555 9.45059C48.7335 7.66909 49.0227 5.86117 49.7894 4.23781C50.323 3.12419 51.1972 2.20937 52.2855 1.62587C53.3738 1.04237 54.6197 0.820491 55.8425 0.992377C57.005 1.09119 58.107 1.55309 58.9925 2.31272C59.878 3.07235 60.5022 4.09122 60.7768 5.22516C60.9943 6.25811 61.1543 7.30232 61.2562 8.35299H50.0131C49.8049 11.3273 51.4031 13.7185 53.6685 14.2951C56.4901 14.9892 58.9017 13.7667 59.7772 11.0839C59.9716 10.3955 60.326 10.2983 60.9516 10.4935H60.9442ZM50.005 7.40076H60.0614C59.9985 4.23209 58.0254 1.92909 55.3492 1.90296C52.3276 1.85396 50.1364 4.06468 50.005 7.40076V7.40076ZM63.0226 10.5629H64.0083C64.0446 11.2891 64.2804 11.9912 64.6899 12.5921C65.0994 13.1929 65.6666 13.6691 66.3293 13.9684C67.1614 14.3429 68.0672 14.5248 68.9793 14.5008C69.8915 14.4768 70.7864 14.2473 71.5976 13.8296C72.0398 13.6305 72.4102 13.3004 72.6588 12.884C72.9074 12.4676 73.0222 11.985 72.9876 11.5012C73.013 11.0347 72.8857 10.5727 72.6248 10.1851C72.364 9.79746 71.9838 9.50549 71.5421 9.35341C70.4576 8.94998 69.3044 8.72784 68.1995 8.37341C67.0497 8.04606 65.9254 7.635 64.8356 7.14351C63.0553 6.27458 62.945 2.89031 64.9606 1.81884C65.9926 1.23649 67.154 0.921824 68.3389 0.903565C69.5238 0.885306 70.6943 1.16403 71.7438 1.71431C73.0456 2.43298 73.7651 3.88419 73.5511 5.35664H72.7058C72.7058 5.31581 72.6291 5.27988 72.6291 5.23823C72.5245 2.54323 70.2591 1.70043 67.8271 1.93726C67.0921 2.01893 66.3955 2.24106 65.7421 2.56936C65.3494 2.74872 65.0221 3.04571 64.8056 3.41924C64.589 3.79277 64.4939 4.22437 64.5335 4.65431C64.5343 5.08458 64.6684 5.50403 64.9173 5.855C65.1662 6.20597 65.5176 6.47123 65.9234 6.61431C66.9851 7.00386 68.1121 7.25376 69.2105 7.55919L71.8647 8.25336C72.4679 8.45137 72.9969 8.82784 73.3816 9.33297C73.7662 9.8381 73.9885 10.4481 74.019 11.0823C74.2314 12.5074 73.5045 13.908 72.2191 14.5572C69.8981 15.8704 66.0753 15.5233 64.3726 13.863C63.5012 12.9868 63.0153 11.7969 63.0251 10.5621L63.0226 10.5629ZM86.5263 5.35746H85.6018C85.6018 5.23251 85.5528 5.11246 85.5389 5.01691C85.5242 4.32394 85.2716 3.65712 84.8236 3.12824C84.3756 2.59935 83.7594 2.24057 83.0783 2.11203C81.7935 1.74352 80.423 1.80955 79.1796 2.29986C78.6879 2.44057 78.255 2.73664 77.9456 3.14381C77.6361 3.55098 77.4668 4.04737 77.4629 4.55876C77.4453 5.06089 77.6017 5.5537 77.9055 5.95384C78.2094 6.35398 78.6421 6.63691 79.1306 6.75478L83.356 7.83931C83.813 7.9489 84.2629 8.0858 84.7035 8.24928C86.051 8.73928 86.9657 9.99041 87.0065 11.4204C87.0267 12.1203 86.8347 12.81 86.4558 13.3989C86.0768 13.9877 85.5286 14.4482 84.8832 14.7197C83.9024 15.1652 82.8395 15.4009 81.7624 15.4118C80.6853 15.4226 79.6178 15.2083 78.6283 14.7826C77.8146 14.4317 77.1279 13.84 76.6607 13.087C76.1934 12.334 75.9681 11.456 76.015 10.5711H76.9182C77.2579 12.2085 78.3825 13.5723 79.9252 14.2175C81.4679 14.8626 83.2294 14.7042 84.6324 13.7961C85.0534 13.5772 85.4028 13.2422 85.6393 12.8309C85.8758 12.4195 85.9895 11.949 85.9669 11.4751C85.9878 11.0083 85.8559 10.5474 85.5912 10.1623C85.3265 9.77715 84.9435 9.48888 84.5001 9.34116C83.4156 8.93773 82.2625 8.72294 81.1575 8.36116C80.0013 8.03885 78.8702 7.63243 77.7733 7.14514C76.0354 6.29009 75.8966 2.93359 77.8778 1.86294C78.9226 1.25615 80.1067 0.930159 81.3148 0.916707C82.523 0.903254 83.714 1.20279 84.7721 1.78618C85.3773 2.14735 85.8644 2.6767 86.1741 3.30976C86.4838 3.94282 86.6028 4.65228 86.5165 5.35174L86.5263 5.35746ZM25.9868 15.0186C25.6229 15.1562 25.2212 15.1559 24.8576 15.0176C24.4939 14.8793 24.1935 14.6127 24.0129 14.2681L20.4196 9.29869L19.8985 8.60453L15.7286 14.2755C15.5587 14.6053 15.2745 14.8619 14.9291 14.9975C14.5838 15.133 14.2009 15.1382 13.8519 15.0121L19.224 7.80501L14.226 1.29291C14.9675 1.02504 15.794 1.31578 16.2064 1.98708L19.9304 7.01774L23.6764 2.00668C23.8477 1.68253 24.1321 1.43262 24.4755 1.30448C24.819 1.17634 25.1976 1.17891 25.5393 1.31169L23.5997 3.88501L20.9725 7.30439C20.8995 7.36951 20.8412 7.44929 20.8013 7.53852C20.7613 7.62774 20.7407 7.7244 20.7407 7.82216C20.7407 7.91992 20.7613 8.01658 20.8013 8.1058C20.8412 8.19503 20.8995 8.27481 20.9725 8.33993L25.9762 15.0186H25.9868ZM48.7963 1.22349V2.20349C48.0934 2.15739 47.3886 2.25918 46.7274 2.50231C46.0663 2.74543 45.4635 3.12448 44.9579 3.61499C44.4523 4.10551 44.0551 4.69658 43.7921 5.35006C43.5291 6.00355 43.406 6.70493 43.4308 7.40893C43.4308 9.69777 43.4308 11.9866 43.4308 14.2755V15.0537H42.4369V1.28474H43.4169V4.10633C44.619 2.04833 46.4745 1.28474 48.8028 1.22921L48.7963 1.22349ZM0.988633 7.71518L1.42637 5.55346C2.6285 1.27903 7.5285 -0.499672 10.8997 2.14796C12.8736 3.69799 13.366 5.89401 13.2697 8.36851H2.14912C1.96945 12.7883 5.15853 15.4572 9.23778 14.095C10.582 13.605 11.5939 12.4878 11.9271 11.0994C12.1427 10.4053 12.4987 10.286 13.1504 10.4869C13.0417 11.3331 12.7426 12.1436 12.2755 12.8575C11.8085 13.5714 11.1856 14.1702 10.4538 14.6087C9.24477 15.2699 7.85763 15.5318 6.49073 15.3572C5.12382 15.1825 3.84716 14.58 2.84328 13.636C1.85022 12.5196 1.25078 11.1084 1.134 9.61801C1.134 9.37301 1.05233 9.14434 0.995166 8.92384C0.989722 8.5117 0.987 8.10881 0.987 7.71518H0.988633ZM2.163 7.41628H12.2194C12.1565 4.21249 10.1345 1.93971 7.43785 1.91848C4.43578 1.87764 2.28795 4.10061 2.15565 7.40239L2.163 7.41628Z" fill="black"/>
</svg>
