<svg width="44" height="50" viewBox="0 0 44 50" fill="none" xmlns="http://www.w3.org/2000/svg">
<path d="M0 39.7987L20.5318 7.7179C20.9645 7.04132 22.1343 7.0548 22.5454 7.74081L29.6508 19.5823L0 39.7987Z" fill="#FF8F00"/>
<path d="M0 39.7908L7.47468 1.38087C7.6701 0.375443 9.29011 0.157097 9.85617 1.0601L24.2597 24.0664L0 39.7908Z" fill="#FFA000"/>
<path d="M0.0107422 39.7841L0.280311 39.6075L23.9052 23.5004L17.2419 12.8571L0.0107422 39.7841Z" fill="#FF6F00"/>
<path d="M0 39.7989L35.9394 10.9204C36.6928 10.3153 37.9503 10.6724 38.1039 11.535L43.1284 39.7989L22.912 49.6187C22.0912 50.0028 21.0898 50.0028 20.269 49.6187L0 39.7989Z" fill="#FFC400"/>
</svg>
