<svg width="50" height="51" viewBox="0 0 50 51" fill="none" xmlns="http://www.w3.org/2000/svg">
<path d="M48.9264 23.3698L27.3502 1.79542C26.1085 0.552569 24.0931 0.552569 22.8498 1.79542L18.3695 6.27511L24.053 11.9593C25.3738 11.5121 26.8883 11.8123 27.9411 12.8649C28.999 13.9249 29.2963 15.4519 28.8392 16.7775L34.3166 22.2542C35.6419 21.7983 37.1708 22.0936 38.2292 23.1536C39.7085 24.6324 39.7085 27.0292 38.2292 28.508C36.7497 29.9881 34.353 29.9881 32.8726 28.508C31.76 27.3949 31.4851 25.7604 32.0485 24.3903L26.9403 19.2818L26.9397 32.7245C27.31 32.9074 27.6482 33.1495 27.9411 33.4398C29.4205 34.9186 29.4205 37.3154 27.9411 38.7967C26.4616 40.2755 24.0639 40.2755 22.5864 38.7967C21.1071 37.3154 21.1071 34.9187 22.5864 33.4411C22.9408 33.0853 23.3621 32.8048 23.8258 32.6146V19.0458C23.3614 18.8568 22.94 18.5763 22.5864 18.2205C21.4656 17.1012 21.196 15.4569 21.7704 14.0806L16.1677 8.47664L1.37335 23.2697C0.130189 24.5138 0.130189 26.5288 1.37335 27.7717L22.9499 49.3473C24.192 50.5901 26.207 50.5901 27.4507 49.3473L48.9262 27.873C50.169 26.6289 50.169 24.6126 48.9262 23.3698" fill="#DE4C36"/>
</svg>
