<svg width="53" height="49" viewBox="0 0 53 49" fill="none" xmlns="http://www.w3.org/2000/svg">
<path d="M13.3546 9.05479C10.7519 12.8645 11.0761 17.8206 13.059 21.8638L13.2049 22.152L13.3034 22.3343C13.3216 22.3698 13.3428 22.4048 13.3615 22.4392C13.396 22.5033 13.4305 22.5649 13.4601 22.6279L13.6497 22.9595L13.7581 23.1418L13.9783 23.4925L14.0769 23.6403C14.1754 23.798 14.2867 23.9547 14.3961 24.1094C14.3986 24.1133 14.402 24.1177 14.405 24.1217C14.4222 24.1463 14.4414 24.1709 14.4542 24.1956C14.5488 24.3286 14.6513 24.4596 14.7498 24.5897L14.8592 24.7316L15.1277 25.0676L15.2302 25.1927C15.3523 25.3402 15.4771 25.4853 15.6046 25.6282L15.6125 25.6361C15.6174 25.6425 15.6223 25.6459 15.6273 25.6523C15.7508 25.7917 15.8776 25.928 16.0076 26.0612L16.1298 26.1864L16.4337 26.4899L16.5579 26.6101C16.6945 26.741 16.8333 26.8696 16.9742 26.9958L17.053 27.0648L17.4309 27.3899L17.5875 27.517L17.9028 27.7634L18.0713 27.8939L18.5531 28.2462C18.5655 28.2546 18.5763 28.2634 18.5886 28.2718C18.7019 28.3506 18.8167 28.427 18.932 28.5033L19.0808 28.6043L19.6188 28.9393L19.7675 29.0246L20.1715 29.2551C20.2454 29.2955 20.3208 29.334 20.3947 29.3724L20.6834 29.5202L20.7499 29.5527L20.8681 29.6108L21.3263 29.8266L21.4234 29.8759C21.6 29.9544 21.778 30.0298 21.9574 30.102L22.0874 30.1542L22.5914 30.3444L22.6545 30.3671C22.8406 30.4327 23.0278 30.4951 23.2161 30.5543L23.3516 30.5957C23.5487 30.6548 23.7334 30.7252 23.9315 30.7632C36.5178 33.1062 40.1748 23.0649 40.1748 23.0649C37.1041 27.1392 31.6538 28.2132 26.4898 27.0175C26.2942 26.9682 26.1046 26.9106 25.9134 26.8529L25.7696 26.8037C25.5833 26.7455 25.3981 26.684 25.2148 26.6199L25.1385 26.5918C24.9745 26.5327 24.8114 26.4711 24.6493 26.4071L24.5113 26.3519C24.3339 26.2806 24.1578 26.206 23.9832 26.1283L23.8778 26.081L23.4324 25.8691L23.3043 25.8061C23.1886 25.7479 23.0736 25.6883 22.9594 25.6272L22.7294 25.5041C22.5904 25.4279 22.4527 25.3492 22.3165 25.2681L22.1771 25.1892C21.9958 25.0809 21.8165 24.9676 21.6391 24.8542C21.5899 24.8222 21.5426 24.7882 21.4938 24.7557L21.111 24.4966L20.9878 24.4079L20.6257 24.1419L20.4651 24.0187L20.1385 23.7586L19.9927 23.6403L19.5862 23.2955C19.5724 23.2832 19.5567 23.2709 19.537 23.2575C19.3921 23.128 19.2498 22.995 19.1093 22.8615L18.9891 22.7432L18.6817 22.4368L18.5615 22.3136C18.4335 22.1806 18.3078 22.0452 18.1846 21.9077C18.1787 21.9008 18.1718 21.8944 18.1659 21.888C18.0357 21.7426 17.9082 21.5948 17.7836 21.4446L17.6836 21.3234L17.4077 20.977L17.3067 20.849L16.989 20.4179C14.1217 16.4348 13.097 10.9417 15.3829 6.42992L13.3546 9.05479ZM21.4342 5.84465C19.5522 8.60352 19.6542 12.2955 21.1223 15.213C21.3679 15.7029 21.6461 16.1757 21.9549 16.6284C22.2367 17.0397 22.5496 17.5299 22.924 17.86C23.0595 18.0078 23.2013 18.1556 23.3462 18.3064C23.3826 18.3443 23.4201 18.3803 23.4575 18.4182C23.5981 18.5578 23.742 18.6939 23.8891 18.8266C23.895 18.8315 23.9004 18.8374 23.9068 18.8424C24.0724 18.9896 24.2418 19.1325 24.4148 19.271L24.5291 19.3616C24.7013 19.497 24.877 19.6278 25.0562 19.7538C25.061 19.7577 25.0659 19.7615 25.071 19.7651C25.1498 19.8208 25.2311 19.8735 25.3114 19.9267C25.3498 19.9523 25.3863 19.9794 25.4247 20.0036C25.5532 20.0877 25.6834 20.169 25.8154 20.2474L25.8706 20.2799L26.2154 20.477C26.2558 20.5002 26.2972 20.5204 26.3386 20.542L26.5849 20.6691C26.5972 20.6755 26.6095 20.6805 26.6214 20.6864C26.7874 20.7701 26.9544 20.849 27.1253 20.9253C27.1618 20.9416 27.1992 20.9564 27.2367 20.9721C27.3731 21.0312 27.5111 21.0884 27.6505 21.1431L27.8279 21.2091C27.9536 21.2559 28.0801 21.3007 28.2072 21.3436L28.3787 21.3993C28.5595 21.4569 28.7383 21.5288 28.927 21.5608C38.6446 23.2004 40.8887 15.58 40.8887 15.58C38.8663 18.5458 34.9502 19.9617 30.7705 18.8572C30.5856 18.808 30.4021 18.7538 30.2202 18.6946C30.1645 18.6773 30.1098 18.6591 30.0547 18.6453C29.9256 18.6027 29.7973 18.5577 29.6699 18.5103L29.496 18.4443C29.3566 18.395 29.2186 18.3335 29.0822 18.2743C29.0447 18.2581 29.0073 18.2433 28.9703 18.2261C28.7989 18.151 28.6297 18.071 28.4629 17.9861C28.3772 17.9433 28.2929 17.8984 28.2087 17.8541L28.0619 17.7772C27.9535 17.7177 27.8462 17.6561 27.7402 17.5925L27.6633 17.5432C27.5321 17.4648 27.4024 17.384 27.2741 17.3009C27.2347 17.2752 27.1963 17.2516 27.1569 17.221L26.9046 17.0511C26.7264 16.9249 26.5513 16.7945 26.3795 16.6599L26.2612 16.5653C24.432 15.0942 22.9816 13.0842 22.2924 10.8047C21.5697 8.43995 21.7258 5.787 22.9821 3.63361L21.4342 5.84465ZM28.2279 3.4464C27.1184 5.1096 27.0096 7.17482 27.7845 9.01143C28.5964 10.9609 30.2601 12.4906 32.2017 13.2153C32.2815 13.2458 32.3618 13.2729 32.448 13.3005L32.5544 13.335C32.6687 13.3714 32.7825 13.4138 32.9002 13.4365C38.2663 14.4922 39.7216 10.6323 40.1088 10.0642C38.8338 11.9339 36.6912 12.3827 34.0624 11.7329C33.8555 11.6811 33.6264 11.6048 33.422 11.5328C33.1647 11.4398 32.9126 11.333 32.6667 11.2131C32.1989 10.9837 31.7552 10.7079 31.3425 10.3899C28.9851 8.57198 27.5234 5.10468 29.0585 2.28078" fill="#0868AC"/>
<path d="M16.3776 38.7521L16.014 40.0408L16.3776 38.7526V38.7521ZM18.2477 41.5494L17.8472 41.5469L18.2477 41.5494ZM18.1491 43.4737L15.7489 43.4825L18.1491 43.4737ZM18.6517 41.5523L18.2506 41.5498L18.6517 41.5523ZM18.3649 43.3101L18.7837 41.7154L18.3649 43.3101ZM27.1982 35.9661L26.4198 39.628L27.1982 35.9661ZM25.1956 35.9661L24.6044 38.7018L25.1956 35.9661Z" fill="#131B28"/>
<path d="M27.0603 35.8011H25.3951C25.3025 35.8011 25.2109 35.875 25.1912 35.9656L24.0088 41.4375C23.9891 41.5277 23.8975 41.6016 23.8053 41.6016H22.6264C21.4598 41.6016 21.5948 40.7951 21.8382 39.6901L21.8455 39.6566L21.9869 38.9028L22.048 38.5924L22.586 35.9656C22.6047 35.875 22.5441 35.8006 22.4515 35.8006H20.742C20.6949 35.8022 20.6496 35.8191 20.6129 35.8488C20.5763 35.8785 20.5503 35.9193 20.539 35.9651L19.769 39.6177C19.3453 41.5508 19.4576 43.3944 21.7593 43.452L21.8258 43.4535H25.438C25.5306 43.4535 25.6217 43.3796 25.6415 43.2889L27.1992 35.9651C27.2189 35.8745 27.1583 35.8006 27.0662 35.8006L27.0603 35.8011ZM33.7047 41.6208C33.7974 41.6208 33.8525 41.6947 33.8392 41.7853L33.6776 42.5761L33.7047 41.6208ZM33.5161 43.3673L33.6776 42.5761L33.5161 43.3673ZM33.3131 43.5338L30.2438 43.5486L33.3131 43.5338Z" fill="#131B28"/>
<path d="M29.2497 40.603C29.2482 40.5163 29.3467 40.3675 29.4393 40.3675L29.2314 40.364C29.1329 41.307 29.2497 40.603 29.2497 40.603ZM30.3956 43.548H30.3636H30.3956ZM33.7048 41.6208C33.7974 41.6208 33.8525 41.6947 33.8392 41.7853L33.6511 42.7046L33.7048 41.6208ZM31.1838 43.5505H31.1769H31.1838ZM30.7749 43.5476H30.7513H30.7749ZM30.6503 43.548H30.6109H30.6503ZM30.5286 43.548H30.4941H30.5286ZM30.7562 43.5476H30.6552H30.7562Z" fill="#131B28"/>
<path d="M31.1774 43.5505L30.7754 43.552L31.1774 43.5505ZM33.3141 43.5382L31.1834 43.551L33.3141 43.5382ZM33.5111 43.3673L33.6466 42.7051L33.5111 43.3677V43.3673ZM30.6065 43.5481H30.5286H30.6163H30.6065ZM30.3626 43.5481H30.2444H30.3626ZM30.4892 43.5481H30.3907H30.4892ZM6.12247 40.6227L6.38111 39.4758L6.08552 40.7862L6.05103 40.9508L6.12296 40.6217L6.12247 40.6227ZM9.2193 35.7823H7.39007C7.3428 35.7842 7.29737 35.8011 7.26041 35.8306C7.22344 35.8601 7.19689 35.9007 7.18463 35.9464L6.8378 37.4736C6.83197 37.4934 6.831 37.5143 6.83497 37.5345C6.83893 37.5547 6.84772 37.5737 6.86058 37.5898C6.87344 37.6059 6.89 37.6187 6.90885 37.627C6.9277 37.6353 6.94828 37.639 6.96885 37.6377H8.81236C8.90498 37.6377 8.99662 37.5638 9.01632 37.4736L9.35133 35.9429C9.37103 35.8528 9.31192 35.7789 9.21831 35.7789L9.2193 35.7823ZM8.82123 38.3284L8.27931 40.8104L8.82123 38.3284ZM3.50745 46.5533L5.01596 46.5651C4.5706 46.5651 3.83507 46.5567 3.50696 46.5528L3.50745 46.5533Z" fill="#131B28"/>
<path d="M6.63482 38.3284L6.37568 39.4753L6.63482 38.3284ZM8.68919 38.1643H6.84518C6.79792 38.1662 6.75249 38.1831 6.71552 38.2126C6.67856 38.2421 6.65201 38.2827 6.63975 38.3284L6.12246 40.6222L6.05053 40.9513L5.55788 43.2929C5.53347 43.4021 5.50388 43.5101 5.4692 43.6165C5.4692 43.6165 5.12434 44.6413 4.54596 44.6299L3.97202 44.6191C3.92494 44.6204 3.87951 44.6367 3.84231 44.6656C3.8051 44.6944 3.77806 44.7344 3.7651 44.7797L3.38329 46.3872C3.37726 46.4069 3.37605 46.4277 3.37975 46.4479C3.38346 46.4681 3.39198 46.4872 3.40459 46.5034C3.4172 46.5196 3.43353 46.5326 3.4522 46.5412C3.47088 46.5498 3.49135 46.5537 3.51188 46.5528L5.02088 46.5651C6.46732 46.5651 7.22946 45.7635 7.71866 43.4579L8.82714 38.3343C8.84684 38.2441 8.78674 38.1702 8.69412 38.1702L8.68919 38.1643ZM34.8797 43.4545C34.7871 43.4545 34.7319 43.3806 34.7467 43.2899L36.1335 36.7938L34.8797 43.4545ZM36.807 43.2894L37.3686 40.5168L36.807 43.2894Z" fill="#131B28"/>
<path d="M34.7669 43.3722C34.7556 43.3269 34.762 43.216 34.7817 43.1259L35.4399 40.0418L34.7462 43.2899C34.7265 43.3806 34.7866 43.4545 34.8793 43.4545H35.0477C34.9551 43.4545 34.7778 43.4175 34.7669 43.3722ZM36.6981 43.4175C36.6479 43.4372 36.5306 43.4545 36.438 43.4545H36.6065C36.6535 43.4526 36.6987 43.4355 36.7351 43.4057C36.7715 43.3759 36.7973 43.3351 36.8085 43.2894L36.842 43.1249C36.8238 43.2155 36.7435 43.3973 36.6942 43.4175H36.6981ZM37.0873 41.9031L37.3351 40.6793L37.0873 41.9031ZM42.5597 37.2288L42.6361 37.5441C42.6573 37.6342 42.5987 37.7076 42.5065 37.7081" fill="#131B28"/>
<path d="M36.8405 43.1249L37.0868 41.9031L36.8405 43.1249ZM42.4844 36.8997L42.5597 37.2229L42.4844 36.8997ZM37.3351 40.6793L37.4031 40.3522L37.6677 39.1132L37.3681 40.5163L37.3351 40.6788V40.6793ZM36.1562 36.6868L36.0986 36.9578L35.4404 40.0418L36.134 36.7938L36.1562 36.6873V36.6868Z" fill="#131B28"/>
<path d="M42.6366 37.5441L42.5602 37.2288L42.4469 36.7361C42.2971 36.1548 41.8577 35.8183 40.9029 35.8183L36.5084 35.8153C36.4613 35.817 36.416 35.8339 36.3794 35.8636C36.3427 35.8933 36.3168 35.9341 36.3055 35.9799L36.2375 36.3016L36.139 36.7878L34.7871 43.1199C34.7674 43.2106 34.761 43.317 34.7723 43.3663C34.7837 43.4155 34.961 43.4485 35.0531 43.4485H36.4424C36.535 43.4485 36.6518 43.4318 36.7025 43.4116C36.7533 43.3914 36.8277 43.2145 36.8503 43.119L37.3775 40.5108L37.9416 37.8682C37.9613 37.7781 38.0524 37.7047 38.1446 37.7042L42.5159 37.7022C42.608 37.7022 42.6666 37.6283 42.6454 37.5382L42.6366 37.5441ZM48.2642 34.6901L47.9277 34.6916H46.5286C46.4773 34.6946 46.4274 34.7086 46.382 34.7326C46.3366 34.7565 46.2969 34.7899 46.2655 34.8305L43.1716 39.363C43.1194 39.4393 43.0598 39.428 43.0386 39.3383L42.811 38.3397C42.7987 38.294 42.7722 38.2535 42.7352 38.2239C42.6982 38.1944 42.6528 38.1775 42.6055 38.1757H40.6167C40.5241 38.1757 40.4689 38.2481 40.4945 38.3372L41.3813 41.4597C41.4069 41.5484 41.4084 41.6947 41.3862 41.7848L40.9921 43.2958C40.9854 43.3152 40.9836 43.3359 40.9869 43.3562C40.9903 43.3764 40.9986 43.3955 41.0112 43.4117C41.0238 43.4279 41.0402 43.4407 41.059 43.4489C41.0777 43.4572 41.0983 43.4606 41.1187 43.4589H43.0893C43.1819 43.4589 43.2765 43.385 43.2992 43.2963L43.6933 41.7853C43.7242 41.679 43.7725 41.5784 43.8362 41.4878L48.8642 34.8207C48.9199 34.7468 48.8899 34.6867 48.7972 34.6876L48.2701 34.6911L48.2642 34.6901ZM32.4618 38.6003C32.4499 38.6989 32.3573 38.7727 32.2647 38.7727H29.7423C29.6551 38.7727 29.6108 38.7136 29.6241 38.6397L29.626 38.6264L29.6374 38.5836C29.8837 37.9431 30.369 37.5229 31.2907 37.5229C32.3288 37.5229 32.5312 38.0303 32.4608 38.6003H32.4618ZM31.7218 35.6897C28.4851 35.6897 27.718 37.6544 27.2879 39.6374C26.8573 41.6587 26.8948 43.549 30.2438 43.549H30.7749L31.1838 43.5476L33.3151 43.5348C33.3618 43.5326 33.4066 43.5153 33.4428 43.4856C33.4789 43.4558 33.5044 43.4152 33.5156 43.3697L33.8392 41.7873C33.858 41.6967 33.7974 41.6228 33.7047 41.6228H30.6936C29.4965 41.6228 29.1403 41.3045 29.2713 40.369H34.0846C34.1634 40.3675 34.2348 40.3197 34.2629 40.2448C34.2678 40.2315 34.2728 40.2172 34.2747 40.2029C34.9891 37.5081 34.7841 35.6917 31.7228 35.6917L31.7218 35.6897ZM16.4229 38.5895L16.3776 38.7506C16.3776 38.7511 16.014 40.0394 16.014 40.0394L15.6504 41.3272C15.6353 41.3726 15.6068 41.4123 15.5686 41.4412C15.5304 41.47 15.4844 41.4866 15.4366 41.4888H13.5123C12.053 41.4888 11.6978 40.3473 12.053 38.6639C12.4077 36.942 13.1048 35.8715 14.5409 35.7631C16.5037 35.6153 16.8958 36.9957 16.4229 38.589V38.5895ZM17.7422 41.3902C17.7422 41.3902 18.6487 39.1881 18.8556 37.9155C19.1364 36.2124 18.2841 33.7427 14.9907 33.7427C11.7161 33.7427 10.2943 36.1006 9.75184 38.6693C9.20992 41.2508 9.92033 43.5151 13.1758 43.4973L18.1447 43.4791C18.1924 43.4768 18.2381 43.4599 18.2758 43.4306C18.3134 43.4013 18.3411 43.3611 18.3551 43.3155L18.7738 41.7203C18.7806 41.701 18.7825 41.6803 18.7792 41.6601C18.776 41.6399 18.7678 41.6208 18.7553 41.6045C18.7428 41.5883 18.7265 41.5754 18.7078 41.5671C18.6891 41.5587 18.6686 41.5552 18.6482 41.5567L17.8467 41.5518C17.7678 41.5513 17.7235 41.5006 17.7324 41.4336C17.7343 41.4213 17.7373 41.4089 17.7422 41.3961V41.3902Z" fill="#131B28"/>
<path d="M33.9526 39.9167C33.9526 39.9778 33.9033 40.0271 33.8422 40.0271C33.7811 40.0271 33.7318 39.9778 33.7318 39.9167C33.7318 39.8556 33.7811 39.8063 33.8422 39.8063C33.9033 39.8063 33.9526 39.8556 33.9526 39.9167Z" fill="#131B28"/>
</svg>
