<svg width="50" height="50" viewBox="0 0 50 50" fill="none" xmlns="http://www.w3.org/2000/svg">
<path d="M0 0H49.4162V49.4162H0V0Z" fill="#F7DF1E"/>
<path d="M12.9927 41.2957L16.7755 39.0071C17.5044 40.3007 18.1678 41.3952 19.7602 41.3952C21.286 41.3952 22.2484 40.7982 22.2484 38.4764V22.6868H26.8922V38.5421C26.8922 43.3519 24.0731 45.5412 19.9592 45.5412C16.2443 45.5412 14.0873 43.6172 12.9927 41.2953" fill="black"/>
<path d="M29.4149 40.7982L33.1953 38.6089C34.191 40.2345 35.4845 41.4285 37.7737 41.4285C39.6972 41.4285 40.924 40.4665 40.924 39.1396C40.924 37.5473 39.6639 36.9834 37.5414 36.055L36.3802 35.557C33.0297 34.1309 30.8073 32.3397 30.8073 28.5582C30.8073 25.0752 33.4609 22.4213 37.6081 22.4213C40.5595 22.4213 42.6832 23.4498 44.2089 26.1366L40.5929 28.4585C39.7961 27.0322 38.935 26.4685 37.6081 26.4685C36.248 26.4685 35.3857 27.3309 35.3857 28.4585C35.3857 29.8518 36.248 30.4157 38.2382 31.2783L39.3982 31.7758C43.3454 33.4677 45.5691 35.1924 45.5691 39.0732C45.5691 43.253 42.2842 45.5416 37.8725 45.5416C33.561 45.5416 30.7739 43.4852 29.4149 40.7982Z" fill="black"/>
</svg>
