<svg width="41" height="49" viewBox="0 0 41 49" fill="none" xmlns="http://www.w3.org/2000/svg">
<g clip-path="url(#clip0)">
<path d="M10.6564 22.5998L8.63912 9.20925L0.465698 4.16608L2.90038 16.7567L10.6564 22.5998ZM12.5693 36.9989L11.2824 27.5038L4.01333 21.4869L5.89145 30.8776L12.5693 36.9989ZM6.7958 34.8774L8.08273 42.0073L14.2736 48.4418L13.4041 41.1726L6.7958 34.8774ZM25.2643 32.6862L22.0819 30.3211C22.0819 30.3211 22.0366 31.1679 21.9515 31.2254L19.6298 32.8601L22.1687 34.9469L22.3167 37.3207L25.3338 39.7814L25.2643 32.6862ZM34.8811 25.7475L34.3071 32.434L32.1682 31.0254C32.1682 31.0254 32.404 27.6447 32.403 27.643C32.3906 27.6203 28.2814 24.8605 28.2814 24.8605L28.4118 21.7825L34.8811 25.7475Z" fill="#004711"/>
<path d="M21.3341 17.0697L20.7429 4.61823L8.63925 9.20922L10.6564 22.5998L21.3341 17.0697ZM21.8906 31.1906L21.4037 21.6954L11.2825 27.5038L12.7781 37.2423L21.8906 31.1906ZM22.0645 35.0512L13.4041 41.1726L14.4824 48.6504L22.3774 42.3551L22.0645 35.0512ZM25.4035 32.6513L25.5425 39.8858L31.803 34.8078L32.116 27.9212L25.4035 32.6513ZM40.3156 22.1736L39.4982 28.5211L34.6029 32.4513L35.1854 25.7822L40.3156 22.1736Z" fill="#00B159"/>
<path d="M22.3896 34.93C22.3893 34.9239 22.387 34.9183 22.3864 34.9124C22.3848 34.8965 22.3821 34.881 22.3779 34.8657C22.3755 34.8566 22.3727 34.8478 22.3693 34.839C22.3639 34.8246 22.3572 34.8109 22.3494 34.7975C22.3449 34.7897 22.3406 34.7817 22.3353 34.7742C22.3259 34.7608 22.3149 34.7487 22.3031 34.7368C22.2975 34.7313 22.2925 34.725 22.2865 34.7198C22.2849 34.7183 22.2836 34.7166 22.282 34.7151L19.9659 32.8247L22.0956 31.3898C22.1806 31.3324 22.2295 31.2357 22.2249 31.134L22.2033 30.6288L25.0271 32.7842L25.082 39.3294L22.4842 37.1425L22.3896 34.93ZM11.0206 27.5955L12.3302 36.5451L6.12365 30.6981L4.32661 22.0182L11.0206 27.5955ZM21.6311 30.9945L12.9659 36.8322L11.6145 27.5974L21.2524 22.1116L21.6311 30.9945ZM20.5167 4.90622L21.0321 16.9558L10.835 22.262L8.94395 9.35309L20.5167 4.90622ZM8.34829 9.34032L10.2074 22.0316L3.19626 16.5674L0.718171 4.59594L8.34829 9.34032ZM8.45634 41.9603L7.13158 35.5592L13.0368 41.3669L13.9826 47.8259L8.45634 41.9603ZM22.1122 42.1931L14.6251 48.1579L13.6293 41.3613L21.8258 35.4969L22.1122 42.1931ZM31.5112 34.6995L25.6695 39.3588L25.615 32.7883L31.9008 28.2923L31.5112 34.6995ZM32.3267 30.9682L32.5246 27.7129C32.5248 27.7093 32.5236 27.7059 32.5236 27.7022C32.5238 27.6979 32.5251 27.6939 32.5249 27.6896C32.5248 27.6767 32.5214 27.6642 32.5195 27.6516C32.5181 27.6425 32.5179 27.6334 32.5157 27.6245C32.5099 27.6018 32.5016 27.58 32.4908 27.5592C32.4898 27.5575 32.4895 27.5554 32.4885 27.5536C32.4761 27.531 32.4601 27.5105 32.4421 27.4917C32.4384 27.4879 32.4339 27.485 32.4301 27.4815C32.4183 27.4703 32.4068 27.459 32.3931 27.4497L28.4579 24.8508L28.5152 21.9989L34.7082 25.858L34.1558 32.2412L32.3267 30.9682ZM34.7561 32.1167L35.297 25.864L40.1847 22.366L39.3632 28.4443L34.7561 32.1167ZM40.8599 21.714C40.8595 21.7084 40.8575 21.7033 40.8568 21.6977C40.8556 21.6872 40.8533 21.6772 40.8509 21.6668C40.8473 21.6505 40.8425 21.6349 40.8362 21.6195C40.8324 21.6104 40.8284 21.6017 40.8238 21.5929C40.8155 21.5776 40.8058 21.5635 40.7949 21.5499C40.7892 21.5426 40.7839 21.5353 40.7773 21.5286C40.7639 21.5145 40.7485 21.5025 40.7322 21.4914C40.7271 21.4879 40.7234 21.4829 40.718 21.4797C40.7169 21.4789 40.7153 21.4788 40.714 21.478C40.7122 21.477 40.7109 21.4754 40.709 21.4744L34.0198 17.7678C33.9277 17.7171 33.8147 17.719 33.7245 17.7747L28.0785 21.2263C28.0694 21.2317 28.0622 21.2395 28.0539 21.2459C28.0439 21.2535 28.0335 21.2606 28.0246 21.2695C28.0152 21.2789 28.0077 21.2898 27.9997 21.3005C27.9927 21.3097 27.9847 21.3184 27.9789 21.3284C27.9716 21.3407 27.967 21.3543 27.9615 21.3675C27.9575 21.3776 27.9523 21.3868 27.9494 21.3974C27.9454 21.4117 27.9443 21.4267 27.9425 21.4417C27.9414 21.4515 27.9384 21.4606 27.9381 21.4705L27.8781 24.4678L25.5813 22.951C25.4862 22.8876 25.3636 22.8857 25.2659 22.9451L21.9617 24.9651L21.8185 21.6058C21.8182 21.5988 21.8156 21.5924 21.815 21.5854C21.8131 21.5707 21.8112 21.556 21.8073 21.5418C21.8045 21.5313 21.8001 21.5214 21.7962 21.5112C21.7912 21.4987 21.7863 21.4864 21.7796 21.4748C21.7736 21.4644 21.7666 21.4551 21.7596 21.4456C21.7521 21.4353 21.7448 21.4254 21.736 21.4164C21.7272 21.4073 21.7175 21.3994 21.7074 21.3913C21.701 21.3862 21.6958 21.3798 21.6889 21.375L18.2501 19.0653L21.469 17.3904C21.5698 17.3375 21.6311 17.2311 21.6265 17.1171L21.0859 4.47256C21.0853 4.45708 21.0816 4.44224 21.0785 4.42723C21.0773 4.42101 21.0771 4.41447 21.0754 4.4084C21.0687 4.38302 21.0586 4.35892 21.0454 4.33658C21.043 4.33243 21.0396 4.32908 21.0371 4.32524C21.0254 4.30721 21.012 4.29061 20.9967 4.27561C20.9911 4.27018 20.985 4.26555 20.979 4.2606C20.9705 4.25358 20.9632 4.2456 20.9539 4.23953C20.9467 4.23475 20.9386 4.23219 20.9311 4.22804C20.9272 4.22597 20.9244 4.22278 20.9204 4.22086L12.2477 0.0360684C12.1803 0.00350815 12.1037 -0.00239739 12.0327 0.0199479L0.20407 3.70437C0.203272 3.70468 0.202474 3.70532 0.201676 3.70564C0.196888 3.70708 0.192738 3.71043 0.18795 3.71219C0.165923 3.72065 0.144536 3.73006 0.125542 3.74331C0.125064 3.74363 0.124425 3.74379 0.123787 3.74411C0.117243 3.74874 0.112774 3.75528 0.106709 3.76039C0.0917052 3.77268 0.076702 3.78497 0.0644121 3.80013C0.0556336 3.81098 0.049728 3.82343 0.0425456 3.8354C0.0353632 3.84722 0.0273828 3.85823 0.0219561 3.871C0.0154121 3.88632 0.0123795 3.9026 0.0087085 3.91888C0.00631436 3.92878 0.00200491 3.93771 0.00056843 3.94777C0.000408821 3.94921 0.000887648 3.95064 0.000728039 3.95208C-0.00102766 3.96692 0.000728039 3.98177 0.00136648 3.99693C0.0018453 4.01065 0.00120687 4.02438 0.003601 4.03779C0.00407983 4.04002 0.003601 4.0421 0.00407983 4.04433L2.64338 16.792C2.65774 16.8601 2.69493 16.921 2.75047 16.9639L6.33258 19.7559L3.74276 20.9891C3.73814 20.9913 3.73446 20.9948 3.73 20.9972C3.72601 20.9994 3.7217 20.9999 3.71786 21.0022C3.71212 21.0057 3.70845 21.0108 3.70302 21.0146C3.68818 21.025 3.67445 21.0363 3.66184 21.0491C3.65466 21.0563 3.64764 21.0633 3.64125 21.0711C3.62864 21.0868 3.61859 21.1037 3.60933 21.1214C3.60598 21.1279 3.60167 21.1338 3.5988 21.1407C3.58858 21.165 3.58092 21.1907 3.57757 21.2175C3.57741 21.2186 3.57757 21.2196 3.57757 21.2207C3.57709 21.2248 3.57789 21.229 3.57757 21.2331C3.57581 21.2572 3.57693 21.2812 3.58108 21.3045C3.58156 21.3077 3.58092 21.3107 3.58156 21.3137L5.5671 30.9077C5.57939 30.967 5.60939 31.0207 5.65329 31.062L8.1467 33.4105L6.49443 34.4211C6.47304 34.4342 6.45404 34.4504 6.43697 34.4679C6.43234 34.4725 6.42899 34.4778 6.42484 34.4828C6.41047 34.4997 6.39834 34.5177 6.38813 34.5373C6.38477 34.5439 6.38158 34.5501 6.37871 34.5568C6.3677 34.5823 6.35908 34.6092 6.35557 34.6376C6.35237 34.6658 6.35477 34.6938 6.35956 34.7212C6.36019 34.7242 6.3594 34.7273 6.36003 34.7305L7.89835 42.1609C7.90936 42.2137 7.93474 42.2626 7.97225 42.3023L14.1941 48.9077C14.2035 48.9176 14.2144 48.9255 14.2248 48.9339C14.2286 48.937 14.2318 48.9405 14.2358 48.9433C14.2553 48.9574 14.2758 48.969 14.2977 48.9778C14.2987 48.9783 14.2995 48.9791 14.3006 48.9794C14.3023 48.9802 14.3044 48.9799 14.3063 48.9805C14.3391 48.9927 14.3734 49 14.4083 49C14.4374 49 14.4661 48.9941 14.4944 48.9853C14.5009 48.9834 14.5071 48.9812 14.5135 48.9786C14.5208 48.9757 14.5287 48.9743 14.536 48.9706C14.548 48.9649 14.5569 48.9556 14.5676 48.9484C14.5753 48.9435 14.5841 48.9411 14.5912 48.9354L22.5948 42.5591C22.6683 42.5002 22.7091 42.4104 22.7053 42.317L22.5182 37.9389L25.1922 40.1894C25.1968 40.1934 25.2028 40.1948 25.2078 40.1985C25.223 40.2097 25.2375 40.2215 25.2547 40.2298C25.2605 40.2323 25.2664 40.2335 25.2721 40.2359C25.2795 40.2387 25.2865 40.241 25.2938 40.2432C25.3226 40.2523 25.3516 40.2585 25.3811 40.2585C25.4099 40.2585 25.4383 40.2526 25.4665 40.244C25.4731 40.2419 25.4795 40.2399 25.486 40.2373C25.4927 40.2347 25.4996 40.2335 25.5061 40.2304C25.521 40.2234 25.5329 40.2132 25.546 40.2041C25.5518 40.2001 25.5585 40.1985 25.5639 40.1942L31.9797 35.0778C32.045 35.0251 32.0846 34.9485 32.0897 34.8652L32.2849 31.6546L34.237 33.0134C34.241 33.0161 34.2457 33.0171 34.2497 33.0196C34.2554 33.0231 34.2597 33.0282 34.2656 33.0314C34.2771 33.0375 34.2894 33.0405 34.3012 33.045C34.3093 33.048 34.317 33.0517 34.3255 33.0541C34.3513 33.0613 34.3778 33.0659 34.4043 33.0659C34.4332 33.0659 34.4619 33.0602 34.49 33.0515C34.4966 33.0496 34.5028 33.0475 34.5092 33.0452C34.5157 33.0426 34.5226 33.0413 34.5291 33.0384C34.5451 33.0308 34.5588 33.0201 34.5729 33.01C34.5775 33.0068 34.5831 33.0056 34.5875 33.0021L39.8213 28.8308C39.8805 28.7836 39.9191 28.715 39.9293 28.6401L40.8578 21.7704C40.8587 21.763 40.857 21.756 40.8575 21.7487C40.8581 21.737 40.8605 21.7258 40.8599 21.714Z" fill="black"/>
</g>
<defs>
<clipPath id="clip0">
<rect width="40.8599" height="49" fill="white"/>
</clipPath>
</defs>
</svg>
