<svg width="73" height="49" viewBox="0 0 73 49" fill="none" xmlns="http://www.w3.org/2000/svg">
<path d="M17.3687 44.6392H14.5811C14.4825 39.94 14.211 35.5222 13.7672 31.3825H13.7424L9.49827 44.6392H7.37593L3.15711 31.3825H3.13287C2.81991 35.357 2.62276 39.7759 2.54088 44.6392H0C0.163754 38.7253 0.575294 33.181 1.233 28.0057H4.688L8.70913 40.2278H8.7339L12.7798 28.0057H16.0856C16.8096 34.0675 17.2373 39.6124 17.3687 44.6392V44.6392ZM29.4579 32.367C28.323 38.5182 26.8255 42.9876 24.9671 45.7775C23.5192 47.9251 21.9328 49 20.2053 49C19.7447 49 19.1764 48.8612 18.5031 48.5858V47.1026C18.8322 47.1499 19.2185 47.1768 19.6623 47.1768C20.4692 47.1768 21.1178 46.9552 21.6123 46.5108C22.2037 45.9696 22.4995 45.3612 22.4995 44.6882C22.4995 44.2266 22.2689 43.283 21.8089 41.8541L18.7498 32.3665H21.4884L23.684 39.4623C24.1774 41.0735 24.3832 42.1984 24.3008 42.8391C25.5014 39.6366 26.3401 36.1446 26.8179 32.3659H29.4579V32.367V32.367Z" fill="#5D87A1"/>
<path d="M66.5638 44.6393H58.6455V28.0058H61.3091V42.5918H66.5638V44.6393ZM56.5727 45.0412L53.5109 43.5322C53.7824 43.3094 54.042 43.0684 54.2758 42.7892C55.5772 41.2625 56.2263 39.0046 56.2263 36.014C56.2263 30.5111 54.0641 27.7583 49.7381 27.7583C47.6168 27.7583 45.9621 28.4566 44.7786 29.8537C43.4783 31.3815 42.8292 33.6313 42.8292 36.6058C42.8292 39.5297 43.4045 41.6745 44.5556 43.0351C45.6087 44.2676 47.1961 44.8846 49.319 44.8846C50.1109 44.8846 50.8375 44.7878 51.4995 44.5925L55.4857 46.9101L56.5727 45.0412ZM46.6542 41.3109C45.9798 40.2274 45.6426 38.4876 45.6426 36.0888C45.6426 31.9007 46.9166 29.8042 49.4672 29.8042C50.8003 29.8042 51.7775 30.3056 52.4023 31.3062C53.0757 32.3913 53.4145 34.1155 53.4145 36.481C53.4145 40.7035 52.1395 42.815 49.5905 42.815C48.2568 42.8156 47.2796 42.3158 46.6542 41.3109V41.3109ZM41.6684 40.0289C41.6684 41.4395 41.1502 42.5966 40.1149 43.5031C39.0785 44.4058 37.6887 44.8583 35.9472 44.8583C34.3183 44.8583 32.7389 44.3386 31.2102 43.3046L31.9261 41.8763C33.2415 42.5342 34.4325 42.8613 35.5017 42.8613C36.5053 42.8613 37.2896 42.6391 37.8584 42.1985C38.4267 41.7563 38.7655 41.136 38.7655 40.3517C38.7655 39.3634 38.0755 38.5188 36.8096 37.8114C35.6423 37.1712 33.3078 35.8327 33.3078 35.8327C32.0424 34.9117 31.409 33.9229 31.409 32.2939C31.409 30.9458 31.8814 29.8575 32.8267 29.0295C33.7732 28.1984 34.9943 27.7841 36.4913 27.7841C38.0372 27.7841 39.4426 28.1978 40.7085 29.0166L40.0664 30.4455C38.9837 29.986 37.915 29.7563 36.8608 29.7563C36.007 29.7563 35.3477 29.9613 34.8893 30.3728C34.4271 30.7828 34.1422 31.3073 34.1422 31.9507C34.1422 32.9341 34.8467 33.7895 36.1471 34.5109C37.33 35.1522 39.7227 36.5138 39.7227 36.5138C41.0204 37.4332 41.6684 38.4128 41.6684 40.0289" fill="#F8981D"/>
<path d="M69.9078 22.4345C68.2972 22.3936 67.0502 22.5555 66.0036 22.9977C65.7014 23.1182 65.2209 23.1182 65.1789 23.4997C65.3421 23.661 65.361 23.9214 65.5026 24.1441C65.744 24.546 66.1647 25.0867 66.5487 25.3686C66.9705 25.6913 67.3939 26.0109 67.8377 26.2923C68.6204 26.7759 69.5076 27.0573 70.2704 27.5393C70.7148 27.8196 71.1565 28.1821 71.6014 28.484C71.8201 28.6448 71.9601 28.9057 72.244 29.0063V28.945C72.1018 28.7642 72.0614 28.5028 71.9219 28.3016L71.3175 27.7195C70.7336 26.9362 70.008 26.2524 69.2253 25.6908C68.5811 25.2475 67.172 24.645 66.9107 23.9037L66.8698 23.8628C67.3125 23.8214 67.8377 23.661 68.2584 23.5378C68.9431 23.3576 69.5674 23.3985 70.2698 23.2183C70.593 23.1376 70.9135 23.0365 71.2378 22.9369V22.7556C70.8737 22.3936 70.614 21.9126 70.231 21.5705C69.2065 20.6866 68.0775 19.8221 66.9107 19.0985C66.2859 18.6956 65.4822 18.4363 64.8169 18.0936C64.5772 17.9725 64.1732 17.9128 64.0321 17.7116C63.6712 17.2694 63.4681 16.6873 63.2063 16.1639C62.6246 15.0594 62.0595 13.8339 61.5575 12.666C61.1944 11.8827 60.9735 11.1005 60.5308 10.3759C58.4569 6.95974 56.2047 4.89071 52.7433 2.85987C51.9994 2.43702 51.1144 2.2568 50.169 2.03516L48.6591 1.95554C48.337 1.81459 48.0144 1.43209 47.7332 1.25133C46.5847 0.528301 43.628 -1.03881 42.7834 1.03023C42.2393 2.33803 43.5882 3.62379 44.0514 4.2871C44.3935 4.74761 44.8368 5.27159 45.0759 5.7945C45.2176 6.13611 45.2575 6.4987 45.3991 6.85968C45.7213 7.7441 46.0224 8.72805 46.4458 9.5533C46.6666 9.97399 46.9074 10.4162 47.1897 10.7971C47.3513 11.0198 47.6324 11.1183 47.6939 11.4814C47.4132 11.8816 47.3911 12.4858 47.2301 12.9882C46.5061 15.259 46.7889 18.0721 47.8151 19.7409C48.1361 20.2433 48.9021 21.3494 49.9266 20.9255C50.8337 20.5639 50.6328 19.4186 50.8935 18.4142C50.9533 18.1716 50.914 18.0124 51.0346 17.8531V17.8924C51.3153 18.4546 51.5986 18.9963 51.8588 19.5601C52.4831 20.544 53.5701 21.5694 54.4756 22.251C54.9577 22.6147 55.3397 23.2366 55.9435 23.4588V23.3985H55.9036C55.7814 23.2183 55.6025 23.1376 55.442 22.9977C55.0789 22.6357 54.6771 22.1935 54.3954 21.7921C53.5518 20.6662 52.8052 19.4197 52.1427 18.1334C51.8184 17.5093 51.5388 16.8272 51.2776 16.2042C51.1558 15.9638 51.1558 15.6012 50.9538 15.4801C50.6511 15.9218 50.21 16.3043 49.9891 16.8455C49.6061 17.7111 49.5663 18.7757 49.424 19.8829L49.3449 19.9216C48.7038 19.7608 48.4808 19.0985 48.2374 18.5363C47.6346 17.1086 47.5333 14.8168 48.0564 13.1695C48.1964 12.7483 48.8024 11.4217 48.5606 11.0203C48.4394 10.6357 48.0364 10.4167 47.8156 10.1139C47.556 9.73298 47.2715 9.25096 47.0906 8.82811C46.6079 7.70322 46.365 6.45674 45.8452 5.33238C45.6022 4.8084 45.1804 4.26612 44.8389 3.78356C44.4554 3.24129 44.0336 2.85933 43.7304 2.21645C43.6302 1.99535 43.4896 1.63383 43.6506 1.39336C43.69 1.23197 43.7718 1.17171 43.9324 1.13137C44.1931 0.911336 44.938 1.19108 45.1993 1.31212C45.9453 1.61339 46.5691 1.89475 47.1918 2.31652C47.4735 2.51825 47.7757 2.90021 48.1372 3.00081H48.5606C49.2032 3.14069 49.9277 3.03955 50.5326 3.22138C51.5986 3.56353 52.5645 4.06546 53.4306 4.60719C56.0663 6.27652 58.2398 8.64843 59.7071 11.4814C59.9479 11.943 60.0503 12.3658 60.27 12.8473C60.694 13.8329 61.2181 14.8378 61.6388 15.8024C62.0616 16.7465 62.4646 17.7105 63.0684 18.4949C63.3695 18.9167 64.5794 19.1378 65.1218 19.3589C65.5231 19.5391 66.148 19.6994 66.5099 19.9205C67.1946 20.3418 67.8765 20.8254 68.5202 21.2886C68.8407 21.5296 69.848 22.0321 69.9078 22.4345V22.4345ZM49.3815 4.96979C49.1037 4.9669 48.8267 5.00092 48.5579 5.07093V5.11127H48.5967C48.7588 5.43244 49.0405 5.65516 49.2414 5.93545C49.4036 6.25769 49.5442 6.57724 49.7031 6.89895L49.7419 6.85914C50.0257 6.65848 50.1669 6.33677 50.1669 5.85421C50.0446 5.71219 50.0257 5.57339 49.9239 5.43244C49.8054 5.23124 49.5442 5.13118 49.3815 4.96979" fill="#5D87A1"/>
<path d="M71.8244 44.6366H72.2413V42.5987H71.616L71.1058 43.9894L70.5516 42.5987H69.9493V44.6366H70.3431V43.0861H70.3652L70.9459 44.6366H71.2459L71.8244 43.0861V44.6366ZM68.4658 44.6366H68.907V42.9441H69.4845V42.5982H67.8642V42.9441H68.4648L68.4658 44.6366Z" fill="#F8981D"/>
</svg>
