<svg width="63" height="49" viewBox="0 0 63 49" fill="none" xmlns="http://www.w3.org/2000/svg">
<g clip-path="url(#clip0)">
<path d="M35.9599 49C35.1568 49 34.4177 48.6869 33.8705 48.1816C33.302 48.6869 32.5842 48.9644 31.8451 48.9644H31.8096C31.0136 48.9502 30.2319 48.6086 29.6633 48.018C29.0877 47.4345 28.7679 46.6446 28.775 45.8547V45.5345L27.9364 47.2281L27.5811 47.9468C27.2826 48.5588 26.6572 48.9502 25.9679 48.9502H18.8256C18.1789 48.9502 17.582 48.5944 17.2622 48.0393L16.8997 47.3847L15.9332 45.684V45.8974C15.9332 47.591 14.5545 48.9715 12.8631 48.9715C12.0387 48.9715 11.2712 48.6513 10.6885 48.0678L6.14729 43.5207V45.8974C6.14729 47.591 4.76859 48.9715 3.0772 48.9715C1.38581 48.9715 0 47.5981 0 45.8974V36.0775C0 34.8322 0.746203 33.715 1.89749 33.2312C2.27414 33.0746 2.66501 32.9963 3.07009 32.9963C3.89447 32.9963 4.66199 33.3166 5.24474 33.9001L9.79302 38.4542V36.0775C9.79302 34.3839 11.1717 33.0035 12.8631 33.0035C14.5545 33.0035 15.9332 34.3839 15.9332 36.0775V36.3408L16.8855 34.6116L17.2337 33.9641C17.5464 33.3877 18.1505 33.0177 18.8114 33.0177H26.2521C26.9415 33.0177 27.5598 33.4091 27.8582 34.021L28.2136 34.7468C28.2349 34.7753 28.242 34.8109 28.2562 34.8394L28.775 36.0846C28.775 35.3019 29.0948 34.5263 29.6633 33.9499C30.239 33.3592 31.0207 33.0177 31.8096 33.0035H31.8451C32.5913 33.0035 33.3304 33.2952 33.906 33.8218C34.4461 33.3308 35.171 33.0319 35.9599 33.0319C37.6513 33.0319 39.03 34.4124 39.03 36.106V38.4898L43.5782 33.9356C44.1539 33.3592 44.9356 33.0319 45.7529 33.0319C46.158 33.0319 46.5488 33.1102 46.9255 33.2667C47.2453 33.3948 47.5367 33.5798 47.7854 33.8075C48.3468 33.3023 49.0646 33.0319 49.825 33.0319C50.6423 33.0319 51.4098 33.345 51.9997 33.9285L54.7429 36.661L57.486 33.9285C58.0688 33.3521 58.8434 33.0319 59.6607 33.0319C60.4851 33.0319 61.2597 33.3521 61.8353 33.9427C63.0364 35.1453 63.0293 37.1022 61.8282 38.2977L59.0993 41.0159L61.814 43.7271C63.015 44.9297 63.0221 46.8794 61.8211 48.082C61.2455 48.6655 60.4637 48.9928 59.6465 48.9928C58.8221 48.9928 58.0546 48.6726 57.4718 48.0891L54.7429 45.3637L52.021 48.0749C51.4453 48.6513 50.6707 48.9715 49.8463 48.9715C49.1072 48.9715 48.3824 48.694 47.8209 48.2101C47.2808 48.7011 46.5559 49.0071 45.76 49.0071C44.0686 49.0071 42.6899 47.6266 42.6899 45.933V43.5492L38.1416 48.1034C37.5589 48.6797 36.7913 49 35.9599 49ZM48.8372 42.553L50.3936 41.0017L48.8372 39.4504V42.553Z" fill="white"/>
<path d="M12.8702 47.1854C12.5362 47.1854 12.2093 47.0573 11.9606 46.8083L4.35641 39.1872V45.8975C4.35641 46.609 3.78077 47.1783 3.07721 47.1783C2.37365 47.1783 1.798 46.6019 1.798 45.8975V36.0775C1.798 35.5581 2.1107 35.0884 2.59395 34.8892C3.07721 34.6899 3.62442 34.7967 3.99397 35.1667L11.591 42.7807V36.0775C11.591 35.3659 12.1667 34.7967 12.8702 34.7967C13.5809 34.7967 14.1494 35.373 14.1494 36.0775V45.8903C14.1565 46.6019 13.5809 47.1854 12.8702 47.1854ZM18.8256 34.8109L18.4703 35.4727L15.7413 40.4396L15.386 41.0658L15.7413 41.692L18.4703 46.5023L18.8399 47.157H25.9892L26.3445 46.4311L28.3841 42.311L29.3009 40.4467H27.2329L22.0165 40.468C21.3343 40.4538 20.7089 41.08 20.7089 41.7489C20.7089 42.432 21.3343 43.044 22.0165 43.0298L25.1648 43.0084L24.3973 44.5668H20.3465L18.3353 41.0373L20.3607 37.3726H24.6673L25.6694 39.4362H28.2562L26.6288 35.5225L26.2735 34.7967H18.8256V34.8109ZM31.8451 34.7895C31.17 34.7967 30.5659 35.4157 30.573 36.0918V39.4505H33.1456V36.0918C33.1527 35.4086 32.5273 34.7753 31.8451 34.7895ZM35.967 47.2068C35.2563 47.2068 34.6878 46.6304 34.6878 45.9259V36.106C34.6878 35.3944 35.2634 34.8251 35.967 34.8251C36.6777 34.8251 37.2462 35.4015 37.2462 36.106V42.8163L44.8504 35.2023C45.2199 34.8322 45.7671 34.7255 46.2504 34.9247C46.7336 35.124 47.0463 35.5936 47.0463 36.1131V45.9259C47.0463 46.6375 46.4707 47.2068 45.7671 47.2068C45.0564 47.2068 44.4879 46.6304 44.4879 45.9259V39.2085L36.8766 46.8296C36.635 47.0716 36.3081 47.2068 35.967 47.2068ZM56.5764 41.0017L60.5704 37.0097C61.0749 36.5045 61.0749 35.6933 60.5775 35.188C60.0729 34.6828 59.2627 34.6828 58.7581 35.1809L54.7571 39.18L50.756 35.1809C50.2514 34.6757 49.4413 34.6757 48.9367 35.188C48.4321 35.6933 48.4321 36.5045 48.9367 37.0097L52.9307 41.0017L48.9438 44.9795C48.4392 45.4847 48.4392 46.2959 48.9367 46.8012C49.1783 47.0431 49.5052 47.1854 49.8464 47.1783C50.1733 47.1783 50.5002 47.0502 50.756 46.8012L54.75 42.8163L58.7439 46.8012C58.9856 47.0431 59.3125 47.1783 59.6536 47.1783C59.9805 47.1783 60.3145 47.0502 60.5633 46.8012C61.0678 46.2959 61.0678 45.4847 60.5561 44.9795L56.5764 41.0017ZM31.8451 47.1712C31.17 47.1641 30.5659 46.545 30.573 45.869V40.4823H33.1456V45.869C33.1527 46.5521 32.5273 47.1783 31.8451 47.1712Z" fill="#009900"/>
<path d="M43.6422 34.754C42.3132 34.7398 41.0625 34.2203 40.1315 33.281L24.0348 17.1706V29.7231C24.0348 32.4911 21.782 34.754 19.0104 34.754C16.2388 34.754 13.986 32.4983 13.986 29.7231V5.03093C13.986 2.98867 15.2012 1.16701 17.0845 0.384258C17.6957 0.128086 18.3424 0 19.0033 0C20.3465 0 21.6114 0.526576 22.5566 1.47299L38.6604 17.5834V5.03093C38.6604 2.25574 40.9132 0 43.6777 0C46.4422 0 48.7022 2.25574 48.7022 5.03093V29.7302C48.7022 32.4983 46.4493 34.7611 43.6777 34.7611H43.6422V34.754Z" fill="white"/>
<path d="M43.6777 32.9608C42.8391 32.9608 42.0077 32.6335 41.3894 32.0144L22.2511 12.8442V29.7231C22.2511 31.5163 20.8013 32.9608 19.0175 32.9608C17.2337 32.9608 15.784 31.5091 15.784 29.7231V5.03092C15.784 3.71448 16.5728 2.54036 17.7809 2.03513C18.9891 1.52991 20.382 1.80743 21.3059 2.73961L40.4442 21.9098V5.03092C40.4442 3.23772 41.894 1.79319 43.6777 1.79319C45.4686 1.79319 46.9113 3.24483 46.9113 5.03092V29.7302C46.9113 31.5163 45.4686 32.9608 43.6777 32.9608Z" fill="#009900"/>
</g>
<defs>
<clipPath id="clip0">
<rect width="62.7308" height="49" fill="white"/>
</clipPath>
</defs>
</svg>
