<svg width="44" height="49" viewBox="0 0 44 49" fill="none" xmlns="http://www.w3.org/2000/svg">
<g clip-path="url(#clip0)">
<path d="M21.7024 48.9091C21.0284 48.9091 20.3994 48.7293 19.8153 48.4148L13.8392 44.8651C12.9406 44.3709 13.3899 44.1912 13.6595 44.1013C14.8727 43.6969 15.0973 43.607 16.3554 42.8881C16.4902 42.7983 16.67 42.8432 16.8048 42.9331L21.3879 45.6739C21.5676 45.7638 21.7923 45.7638 21.9271 45.6739L39.8552 35.2945C40.0349 35.2047 40.1248 35.0249 40.1248 34.8003V14.0864C40.1248 13.8617 40.0349 13.682 39.8552 13.5921L21.9271 3.25761C21.7474 3.16774 21.5227 3.16774 21.3879 3.25761L3.45981 13.5921C3.28008 13.682 3.19021 13.9066 3.19021 14.0864V34.8003C3.19021 34.98 3.28008 35.2047 3.45981 35.2945L8.35745 38.1253C11.0085 39.4732 12.671 37.9006 12.671 36.328V15.8837C12.671 15.6141 12.8956 15.3445 13.2102 15.3445H15.5017C15.7713 15.3445 16.0409 15.5691 16.0409 15.8837V36.328C16.0409 39.8776 14.1088 41.9445 10.7389 41.9445C9.70543 41.9445 8.89664 41.9445 6.60508 40.8212L1.88717 38.1253C0.718921 37.4513 0 36.1932 0 34.8452V14.1313C0 12.7833 0.718921 11.5252 1.88717 10.8512L19.8153 0.471792C20.9386 -0.157264 22.4663 -0.157264 23.5896 0.471792L41.5177 10.8512C42.6859 11.5252 43.4048 12.7833 43.4048 14.1313V34.8452C43.4048 36.1932 42.6859 37.4513 41.5177 38.1253L23.5896 48.5047C23.0055 48.7743 22.3315 48.9091 21.7024 48.9091ZM27.2291 34.6655C19.3659 34.6655 17.7484 31.0709 17.7484 28.0154C17.7484 27.7458 17.973 27.4763 18.2875 27.4763H20.624C20.8936 27.4763 21.1183 27.656 21.1183 27.9256C21.4778 30.307 22.5112 31.4753 27.2741 31.4753C31.0484 31.4753 32.666 30.6215 32.666 28.5996C32.666 27.4313 32.2166 26.5776 26.3305 25.9935C21.4328 25.4992 18.3774 24.4208 18.3774 20.5117C18.3774 16.8722 21.4328 14.7154 26.5551 14.7154C32.3065 14.7154 35.1373 16.6924 35.4967 21.006C35.4967 21.1408 35.4518 21.2756 35.3619 21.4104C35.2721 21.5002 35.1373 21.5901 35.0025 21.5901H32.666C32.4413 21.5901 32.2166 21.4104 32.1717 21.1857C31.6325 18.7144 30.2396 17.9056 26.5551 17.9056C22.4213 17.9056 21.9271 19.3435 21.9271 20.4218C21.9271 21.7249 22.5112 22.1293 28.0828 22.8482C33.6095 23.5671 36.2156 24.6006 36.2156 28.4648C36.1707 32.4188 32.9356 34.6655 27.2291 34.6655Z" fill="#539E43"/>
</g>
<defs>
<clipPath id="clip0">
<rect width="43.4048" height="49" fill="white"/>
</clipPath>
</defs>
</svg>
