<svg width="67" height="50" viewBox="0 0 67 50" fill="none" xmlns="http://www.w3.org/2000/svg">
<path d="M38.0121 13.524L35.7291 17.4772L27.9214 3.95329L3.95207 45.4628H20.1803C20.1803 47.6457 21.9506 49.4161 24.1336 49.4161H3.95207C2.54001 49.4161 1.2354 48.6625 0.529987 47.4394C-0.176662 46.2164 -0.176662 44.7092 0.529987 43.4862L24.498 1.97665C25.2047 0.753479 26.5093 0 27.9214 0C29.3347 0 30.6392 0.753479 31.3459 1.97665L38.0121 13.524Z" fill="#00C58E"/>
<path d="M55.314 43.4862L40.2952 17.4772L38.0122 13.524L35.7291 17.4772L20.7116 43.4862C20.005 44.7092 20.005 46.2164 20.7116 47.4394C21.417 48.6625 22.7216 49.4161 24.1337 49.4161H51.8857C53.299 49.4161 54.6036 48.6625 55.3103 47.4394C56.0169 46.2164 56.0169 44.7092 55.3103 43.4862H55.314ZM24.1337 45.4628L38.0122 21.4305L51.8857 45.4628H24.1337Z" fill="#2F495E"/>
<path d="M66.052 47.4396C65.3454 48.6626 64.0408 49.4162 62.6287 49.4162H51.8856C54.0698 49.4162 55.8389 47.6459 55.8389 45.4629H62.6213L43.3787 12.1355L40.2951 17.4773L38.0121 13.5241L39.9554 10.1588C40.662 8.93577 41.9666 8.18217 43.3787 8.18217C44.792 8.18217 46.0966 8.93577 46.8032 10.1588L66.052 43.4863C66.7587 44.7093 66.7587 46.2165 66.052 47.4396Z" fill="#108775"/>
</svg>
