<svg width="56" height="50" viewBox="0 0 56 50" fill="none" xmlns="http://www.w3.org/2000/svg">
<path fill-rule="evenodd" clip-rule="evenodd" d="M16.5199 49.3903C15.5115 49.3903 14.6217 49.1728 13.8704 48.7379C11.033 47.0967 10.0444 42.3711 11.2406 36.0934C11.3633 35.4478 11.5082 34.7881 11.6744 34.1165C11.1537 33.9667 10.6496 33.8084 10.163 33.6416C7.20706 32.6332 4.69596 31.2887 2.90655 29.7563C1.00839 28.135 0 26.3653 0 24.655C0 21.3728 3.59859 18.1598 9.63907 16.0639C10.3002 15.8338 10.9881 15.6174 11.7001 15.415C11.5448 14.7902 11.4079 14.1755 11.2901 13.5726C10.7068 10.5869 10.598 7.84843 10.9737 5.6438C11.3889 3.24145 12.3677 1.53113 13.8209 0.690806C16.767 -1.01951 21.7794 0.740237 26.8806 5.27801C27.1884 5.55126 27.4974 5.83658 27.8072 6.13344C28.2694 5.68831 28.732 5.26425 29.194 4.86279C31.4876 2.86577 33.8109 1.40261 35.9068 0.631488C38.1905 -0.208841 40.1677 -0.208841 41.6111 0.621602C44.5671 2.32203 45.5458 7.54196 44.1618 14.225C44.0789 14.6266 43.9864 15.0352 43.8845 15.4501C44.4963 15.6275 45.0902 15.8157 45.6645 16.0145C48.5414 17.0031 50.9635 18.2883 52.6837 19.7119C54.5522 21.2739 55.5408 22.9842 55.5408 24.655C55.5408 28.0658 51.5171 31.5161 45.0317 33.6614C44.6957 33.7729 44.3513 33.8808 43.9991 33.985C44.124 34.4898 44.2344 34.9852 44.3298 35.4705C44.9329 38.5353 45.0317 41.3825 44.6066 43.6959C44.1519 46.1575 43.1237 47.9074 41.6408 48.7675C40.8993 49.2025 40.0194 49.42 39.0407 49.42C36.3516 49.42 32.9409 47.7987 29.3819 44.7339C28.8813 44.3031 28.3796 43.8457 27.8783 43.3637C27.4919 43.7368 27.1065 44.0916 26.7225 44.4275C24.3695 46.4838 21.9474 47.9865 19.7329 48.7675C18.5762 49.1827 17.4887 49.3903 16.5199 49.3903ZM26.2182 41.6763C25.8643 42.0173 25.5115 42.3414 25.1604 42.6479C21.5816 45.772 18.4872 47.0177 16.5199 47.0177C15.9168 47.0177 15.4225 46.899 15.0468 46.6815C13.5244 45.8016 12.4665 42.3217 13.5639 36.5383C13.6765 35.9407 13.8115 35.3261 13.9675 34.6972C16.2289 35.1988 18.7385 35.5617 21.4458 35.7799C22.9815 37.9442 24.5893 39.931 26.2182 41.6763ZM29.5346 41.6588C30.0037 42.1107 30.4708 42.5368 30.934 42.9346C35.3927 46.7705 38.9319 47.6009 40.4643 46.7112C42.056 45.7918 43.2226 42.0251 42.0164 35.9352C41.9286 35.494 41.8275 35.0433 41.7135 34.5838C39.4226 35.1133 36.8843 35.5048 34.1945 35.7449C32.6575 37.9706 31.0938 39.9554 29.5346 41.6588ZM43.355 31.7021C43.6738 31.6071 43.9857 31.5088 44.2903 31.4073C50.3901 29.3806 53.178 26.484 53.178 24.655C53.178 23.7158 52.4662 22.6086 51.1711 21.531C49.6783 20.2853 47.5033 19.1484 44.9032 18.2487C44.3698 18.0661 43.8182 17.8926 43.2499 17.7287C42.5674 19.9344 41.6547 22.2748 40.5452 24.6683C41.7144 27.128 42.6579 29.4887 43.355 31.7021ZM39.1979 27.4138C39.9437 29.1114 40.5682 30.7471 41.064 32.3017C39.4551 32.6698 37.7159 32.9661 35.8823 33.1863C36.4568 32.2759 37.0257 31.3328 37.5874 30.3594C38.1529 29.3775 38.6905 28.3938 39.1979 27.4138ZM39.1737 21.9334C39.8777 20.2835 40.4753 18.6749 40.9543 17.1387C39.3529 16.7737 37.6515 16.4771 35.8802 16.2536C36.4552 17.1545 37.0188 18.0813 37.5676 19.0297C38.1335 20.0076 38.6692 20.9764 39.1737 21.9334ZM32.8412 15.9476C33.7609 17.3044 34.6588 18.7363 35.5212 20.226C36.3982 21.7401 37.1992 23.2294 37.9199 24.683C37.1986 26.1711 36.3995 27.6781 35.5311 29.1829C34.659 30.693 33.7708 32.1262 32.8735 33.4729C31.2234 33.5911 29.5181 33.6515 27.7803 33.6515C26.0425 33.6515 24.3632 33.599 22.7538 33.4955C21.807 32.1152 20.8956 30.6727 20.0394 29.1928C19.1794 27.7071 18.3861 26.2078 17.6674 24.7152C18.3869 23.215 19.1767 21.7148 20.0252 20.2433L20.0295 20.2458C20.8883 18.7575 21.7925 17.3196 22.7282 15.9495C24.387 15.823 26.0812 15.7574 27.7803 15.7574C29.4953 15.7574 31.1896 15.822 32.8412 15.9476ZM34.1561 13.6787C36.7743 13.9239 39.2807 14.3196 41.5915 14.8546C41.682 14.484 41.7644 14.1191 41.8385 13.7604C43.1336 7.46287 42.0165 3.60724 40.4248 2.68782C39.6141 2.22317 38.2992 2.28249 36.7174 2.86577C34.8885 3.53804 32.8223 4.85291 30.7462 6.66208C30.322 7.03115 29.8967 7.4207 29.4715 7.82943C31.0496 9.53264 32.6298 11.5063 34.1561 13.6787ZM27.8086 9.52532C28.8988 10.7071 29.9924 12.0281 31.0691 13.4621C29.9807 13.4108 28.8793 13.3847 27.7704 13.3847C26.6774 13.3847 25.5922 13.4099 24.52 13.4595C25.5943 12.0435 26.6968 10.7242 27.8086 9.52532ZM26.1443 7.82762C24.531 9.56111 22.9408 11.5318 21.4239 13.6732C18.8106 13.9147 16.3101 14.3041 14.0035 14.8282C13.8596 14.2478 13.7326 13.6772 13.6232 13.1178C13.0894 10.4188 12.9905 7.96707 13.3167 6.04914C13.6034 4.38825 14.2065 3.21179 15.0172 2.74714C16.6089 1.82772 20.504 2.78668 25.3087 7.05753C25.5861 7.30372 25.8647 7.56056 26.1443 7.82762ZM14.6437 17.1186C16.2313 16.7648 17.925 16.4749 19.6843 16.2548C19.1011 17.1645 18.5329 18.0975 17.983 19.0495C17.4315 20.0053 16.9062 20.9667 16.409 21.9288C15.7193 20.2925 15.1272 18.6799 14.6437 17.1186ZM12.336 17.6994C11.6738 17.8869 11.0373 18.0867 10.43 18.2982C4.87391 20.2359 2.38258 22.8854 2.38258 24.655C2.38258 26.4939 5.06175 29.3905 10.9342 31.3974C11.3765 31.5486 11.8349 31.6925 12.3087 31.829C13.0096 29.5373 13.932 27.1423 15.0451 24.7219C13.9456 22.3342 13.0325 19.9679 12.336 17.6994ZM16.4088 27.5089C15.7058 29.1776 15.1003 30.824 14.6088 32.4078C16.1887 32.753 17.9004 33.0285 19.7241 33.2316C19.1276 32.3044 18.5461 31.3522 17.983 30.3791C17.4315 29.427 16.9061 28.4686 16.4088 27.5089ZM24.5338 35.9626C25.5921 36.0035 26.6751 36.0242 27.7803 36.0242C28.9151 36.0242 30.0377 35.9988 31.1422 35.949C30.0564 37.4257 28.964 38.7697 27.877 39.9649C26.7516 38.7494 25.6282 37.404 24.5338 35.9626ZM32.7432 24.655C32.7432 27.3959 30.5212 29.6179 27.7803 29.6179C25.0394 29.6179 22.8174 27.3959 22.8174 24.655C22.8174 21.9141 25.0394 19.6921 27.7803 19.6921C30.5212 19.6921 32.7432 21.9141 32.7432 24.655Z" fill="#00D8FF"/>
</svg>
