<svg width="66" height="50" viewBox="0 0 66 50" fill="none" xmlns="http://www.w3.org/2000/svg">
<path d="M56.7518 28.8668C54.4463 28.8798 52.4511 29.4333 50.776 30.2577C50.1579 29.0343 49.5398 27.9655 49.4372 27.1671C49.321 26.24 49.18 25.6733 49.321 24.566C49.4631 23.4584 50.1072 21.8874 50.1072 21.7586C50.0936 21.6427 49.965 21.076 48.6386 21.0632C47.3121 21.0503 46.1661 21.3208 46.0376 21.6684C45.909 22.0162 45.6519 22.8145 45.4838 23.6387C45.2526 24.8491 42.8308 29.1373 41.4537 31.3908C41.0025 30.515 40.6168 29.7424 40.5389 29.1242C40.4227 28.1973 40.2818 27.6305 40.4227 26.5232C40.5649 25.4155 41.2089 23.8447 41.2089 23.716C41.1953 23.6 41.0668 23.0335 39.7403 23.0206C38.4138 23.0076 37.2679 23.2781 37.1393 23.6257C37.0107 23.9735 36.8698 24.7977 36.5855 25.596C36.316 26.3944 33.0957 33.5541 32.2587 35.4213C31.8347 36.3742 31.4614 37.134 31.1906 37.6491C30.9199 38.1641 31.1771 37.6877 31.1511 37.7392C30.9199 38.1771 30.7913 38.4217 30.7913 38.4217V38.4347C30.6108 38.7566 30.418 39.0656 30.3278 39.0656C30.2635 39.0656 30.1337 38.2028 30.3537 37.0183C30.8297 34.5327 31.988 30.6568 31.9756 30.5153C31.9756 30.4509 32.1944 29.7682 31.229 29.4206C30.2882 29.073 29.9544 29.6524 29.8765 29.6524C29.7999 29.6524 29.7356 29.8585 29.7356 29.8585C29.7356 29.8585 30.7777 25.4933 27.7391 25.4933C25.8329 25.4933 23.2059 27.5664 21.9054 29.4594C21.0821 29.9102 19.3304 30.8629 17.4761 31.8803C16.7677 32.2666 16.0334 32.6788 15.3387 33.0521L15.1965 32.8973C11.5138 28.9698 4.70227 26.1884 4.98536 20.9087C5.08797 18.9899 5.75801 13.9292 18.0682 7.79972C28.152 2.77758 36.2257 4.15544 37.6288 7.22018C39.6253 11.5985 33.3145 19.7369 22.8326 20.9087C18.8409 21.3594 16.7418 19.8141 16.2139 19.2347C15.6601 18.6295 15.5834 18.6036 15.377 18.7196C15.042 18.8998 15.2484 19.4407 15.377 19.7626C15.686 20.5739 16.9742 22.0162 19.1635 22.7373C21.0821 23.3682 25.7686 23.716 31.4354 21.5268C37.7834 19.0672 42.7418 12.2423 41.2856 6.53767C39.8058 0.730097 30.1732 -1.17573 21.0685 2.05646C15.6477 3.98804 9.7757 7.00125 5.55156 10.9547C0.530059 15.6419 -0.268551 19.7369 0.0664634 21.4366C1.23839 27.5019 9.59522 31.4552 12.9429 34.3782C12.776 34.4683 12.6215 34.5584 12.4793 34.6358C10.8055 35.4598 4.43155 38.7952 2.83436 42.3233C1.03196 46.3153 3.11746 49.1871 4.5082 49.5734C8.81023 50.7709 13.2136 48.6205 15.5958 45.0792C17.9656 41.538 17.6825 36.9409 16.5872 34.8418L16.5489 34.7645L17.8618 33.9919C18.7123 33.4897 19.5492 33.0262 20.2835 32.6269C19.8719 33.7471 19.5752 35.0735 19.4206 37.005C19.2402 39.2716 20.1673 42.2075 21.3912 43.3665C21.9314 43.8685 22.5755 43.8815 22.9748 43.8815C24.3915 43.8815 25.0355 42.7095 25.7439 41.3061C26.6191 39.5934 27.3917 37.6103 27.3917 37.6103C27.3917 37.6103 26.4263 42.9801 29.0656 42.9801C30.0311 42.9801 30.9965 41.731 31.4354 41.0871V41.1C31.4354 41.1 31.4601 41.0614 31.5121 40.9713C31.5665 40.8913 31.6184 40.8098 31.6666 40.7268V40.7009C32.0535 40.0314 32.9164 38.499 34.2033 35.9622C35.8648 32.6914 37.4619 28.5964 37.4619 28.5964C37.4619 28.5964 37.6165 29.6009 38.0924 31.2491C38.3755 32.2279 38.9936 33.2965 39.4708 34.3396C39.0839 34.8805 38.8527 35.1897 38.8527 35.1897L38.8651 35.2025C38.556 35.6145 38.2086 36.0525 37.8477 36.4903C36.5348 38.0613 34.9636 39.8513 34.7571 40.3664C34.5124 40.9715 34.5643 41.4223 35.0402 41.7829C35.3888 42.0405 36.0069 42.0918 36.6634 42.0405C37.8476 41.9631 38.6722 41.667 39.0839 41.4866C39.7279 41.2548 40.4622 40.9071 41.1706 40.392C42.4575 39.4393 43.2437 38.0871 43.1659 36.2843C43.1275 35.2928 42.8061 34.3142 42.4068 33.387C42.5218 33.2196 42.638 33.052 42.7542 32.8719C44.789 29.8972 46.3602 26.6264 46.3602 26.6264C46.3602 26.6264 46.5147 27.6308 46.9907 29.2792C47.2355 30.1161 47.725 31.0305 48.1626 31.932C46.2564 33.4901 45.0585 35.2929 44.6468 36.4777C43.8878 38.6668 44.4799 39.6583 45.5999 39.8901C46.1019 39.9931 46.8238 39.7613 47.364 39.5295C48.0341 39.3106 48.845 38.937 49.5917 38.3834C50.8798 37.4305 52.116 36.1042 52.0517 34.3143C52.0122 33.4901 51.7934 32.6789 51.4979 31.9063C53.1198 31.2366 55.2189 30.8503 57.8842 31.1722C63.6153 31.8419 64.7489 35.4217 64.5301 36.9154C64.31 38.4094 63.1134 39.2333 62.7141 39.4909C62.3148 39.7356 62.1862 39.8258 62.2246 40.0059C62.2765 40.2766 62.4557 40.2636 62.8043 40.2121C63.2803 40.1348 65.817 38.9888 65.9196 36.2333C66.0741 32.6915 62.7141 28.8283 56.7518 28.8668ZM12.5572 43.7658C10.6645 45.839 7.99801 46.6245 6.86564 45.9548C5.64179 45.2466 6.11774 42.1948 8.44924 39.9927C9.86594 38.6535 11.7067 37.4173 12.9181 36.6575C13.1876 36.4902 13.6006 36.2456 14.0889 35.9493C14.1667 35.8979 14.2186 35.872 14.2186 35.872C14.3089 35.8205 14.4115 35.7561 14.5141 35.6917C15.377 38.8338 14.5524 41.5895 12.5572 43.7658ZM26.4003 34.3525C25.7426 35.9622 24.3531 40.0957 23.515 39.8639C22.7943 39.6708 22.3566 36.5416 23.3741 33.451C23.8883 31.8928 24.9836 30.0386 25.6277 29.3174C26.6698 28.1584 27.8034 27.7721 28.0865 28.2486C28.4215 28.8668 26.812 33.3481 26.4003 34.3525ZM37.8217 39.8125C37.5386 39.9543 37.2815 40.0571 37.1653 39.98C37.075 39.9284 37.2815 39.7353 37.2815 39.7353C37.2815 39.7353 38.7105 38.2029 39.2767 37.4947C39.5994 37.0828 39.9851 36.6062 40.398 36.0653V36.2198C40.398 38.074 38.6203 39.3102 37.8217 39.8125ZM46.6297 37.8036C46.4245 37.6491 46.4492 37.1727 47.1452 35.6788C47.4159 35.0866 48.0341 34.095 49.1022 33.155C49.2307 33.5413 49.3086 33.9145 49.295 34.2624C49.2826 36.5803 47.6348 37.443 46.6297 37.8036Z" fill="#CF649A"/>
</svg>
