<svg width="44" height="49" viewBox="0 0 44 49" fill="none" xmlns="http://www.w3.org/2000/svg">
<path d="M22.2096 0L43.8635 12.25V36.75L22.2096 49L0.555664 36.75V12.25L22.2096 0Z" fill="white"/>
<path d="M39.9966 35.9047L22.9242 45.5618V38.0403L33.5612 32.1889L39.9966 35.9047ZM41.1644 34.8472V14.651L34.9169 18.2566V31.2375L41.1644 34.8472ZM4.35315 35.9047L21.4256 45.5618V38.0403L10.7885 32.1889L4.35315 35.9047V35.9047ZM3.18532 34.8472V14.651L9.43282 18.2566V31.2375L3.18532 34.8472V34.8472ZM3.91623 13.3443L21.4256 3.43817V10.7106L10.2087 16.8805L10.1229 16.9295L3.91623 13.3443V13.3443ZM40.4335 13.3443L22.9242 3.43817V10.7106L34.1411 16.8805L34.2268 16.9295L40.4335 13.3443V13.3443Z" fill="#8ED6FB"/>
<path d="M21.4256 36.3294L10.9314 30.5597V19.1263L21.4256 25.186V36.3294ZM22.9242 36.3294L33.4183 30.5597V19.1263L22.9242 25.186V36.3294ZM11.6419 17.8033L22.1769 12.0091L32.7119 17.8033L22.1769 23.8875L11.6419 17.8033" fill="#1C78C0"/>
</svg>
